<?xml version="1.0" encoding="utf-8"?>
<!-- Generator: Adobe Illustrator 22.0.1, SVG Export Plug-In . SVG Version: 6.00 Build 0)  -->
<svg version="1.1" id="Layer_1" xmlns="http://www.w3.org/2000/svg" xmlns:xlink="http://www.w3.org/1999/xlink" x="0px" y="0px"
	 viewBox="0 0 48 26" style="enable-background:new 0 0 48 26;" xml:space="preserve">
<style type="text/css">
	.st0{opacity:0.2;enable-background:new    ;}
	.st1{fill:#002E5F;}
</style>
<g class="st0">
	<path class="st1" d="M42.6,0H5.4C2.8,0,0.6,2.2,0.6,4.8V17c0,2.5,2,4.6,4.5,4.8v2.9c0,0.5,0.4,1,1,1h7.4c0.5,0,1-0.4,1-1v-2.9h19.2
		v2.9c0,0.5,0.4,1,1,1H42c0.5,0,1-0.4,1-1v-2.9c2.5-0.2,4.5-2.3,4.5-4.8V4.8C47.4,2.2,45.2,0,42.6,0L42.6,0z M12.5,23.7H7v-1.9h5.5
		V23.7z M35.5,23.7v-1.9H41v1.9H35.5z M45.5,17c0,1.6-1.3,2.9-2.9,2.9H5.4c-1.6,0-2.9-1.3-2.9-2.9V4.8c0-1.6,1.3-2.9,2.9-2.9h37.1
		c1.6,0,2.9,1.3,2.9,2.9L45.5,17L45.5,17z"/>
	<path class="st1" d="M35,18.1c-4,0-7.2-3.2-7.2-7.2S31,3.7,35,3.7s7.2,3.2,7.2,7.2S38.9,18.1,35,18.1L35,18.1z M35,5.6
		c-2.9,0-5.3,2.4-5.3,5.3s2.4,5.3,5.3,5.3c2.9,0,5.3-2.4,5.3-5.3S37.9,5.6,35,5.6L35,5.6z"/>
	<path class="st1" d="M31.7,11.9c-0.5,0-1-0.4-1-1c0-2.3,1.9-4.2,4.2-4.2c0.5,0,1,0.4,1,1c0,0.5-0.4,1-1,1c-1.2,0-2.3,1-2.3,2.2
		C32.7,11.4,32.3,11.9,31.7,11.9L31.7,11.9z"/>
	<path class="st1" d="M17.8,8H5.7c-0.5,0-1-0.4-1-1c0-0.5,0.4-1,1-1h12.1c0.5,0,1,0.4,1,1C18.7,7.6,18.3,8,17.8,8L17.8,8z"/>
	<path class="st1" d="M17.8,11.9H5.7c-0.5,0-1-0.4-1-1c0-0.5,0.4-1,1-1h12.1c0.5,0,1,0.4,1,1C18.7,11.4,18.3,11.9,17.8,11.9
		L17.8,11.9z"/>
	<path class="st1" d="M17.8,15.8H5.7c-0.5,0-1-0.4-1-1c0-0.5,0.4-1,1-1h12.1c0.5,0,1,0.4,1,1C18.7,15.3,18.3,15.8,17.8,15.8
		L17.8,15.8z"/>
</g>
</svg>
