<?xml version="1.0" encoding="utf-8"?>
<!-- Generator: Adobe Illustrator 22.0.1, SVG Export Plug-In . SVG Version: 6.00 Build 0)  -->
<svg version="1.1" id="Layer_1" xmlns="http://www.w3.org/2000/svg" xmlns:xlink="http://www.w3.org/1999/xlink" x="0px" y="0px"
	 viewBox="0 0 36 37" style="enable-background:new 0 0 36 37;" xml:space="preserve">
<style type="text/css">
	.st0{opacity:0.2;}
	.st1{fill:#002E5F;}
</style>
<g class="st0">
	<g>
		<path class="st1" d="M28.9,38.3c-1.5,0-3.3-0.4-5.3-1.1c-4.4-1.6-9.1-4.9-13.4-9.1C6,23.8,2.8,19,1.1,14.7c-1.5-4-1.5-7.2,0-8.7
			c0.2-0.2,0.4-0.4,0.7-0.7c1.4-1.4,2.9-3.1,4.9-3C8.1,2.4,9.5,3.3,10.9,5c4.1,5.1,2.3,6.9,0.1,9l-0.4,0.4c-0.3,0.3-1,2,5.2,8.1
			c2,2,3.7,3.5,5.1,4.4c0.9,0.6,2.4,1.4,3,0.8l0.4-0.4c2.1-2.1,3.9-4,9,0.1c1.7,1.4,2.6,2.7,2.7,4.2c0.1,2-1.5,3.6-3,4.9
			c-0.2,0.2-0.5,0.4-0.7,0.7C31.6,37.9,30.4,38.3,28.9,38.3L28.9,38.3z M6.6,3.5c-1.4,0-2.8,1.4-3.9,2.6C2.4,6.4,2.2,6.6,2,6.8
			c-1.1,1.1-1,4,0.3,7.4c1.6,4.2,4.7,8.8,8.9,12.9c4.1,4.1,8.7,7.3,12.9,8.9c3.4,1.3,6.3,1.4,7.4,0.3c0.2-0.2,0.5-0.4,0.7-0.7
			c1.2-1.2,2.7-2.5,2.6-4c0-1-0.8-2.1-2.2-3.3c-4.3-3.4-5.4-2.2-7.4-0.2l-0.4,0.4c-0.9,0.9-2.5,0.7-4.6-0.6
			c-1.4-0.9-3.2-2.5-5.3-4.5c-5.1-5.1-6.8-8.3-5.2-9.9l0.4-0.4c2-2,3.2-3.2-0.2-7.4C8.8,4.3,7.7,3.6,6.6,3.5
			C6.6,3.5,6.6,3.5,6.6,3.5L6.6,3.5z M6.6,3.5"/>
		<path class="st1" d="M29.1,17.2c-0.1,0-0.2,0-0.2,0c-0.3-0.1-0.5-0.5-0.3-0.8c0.8-1.9,0.3-4.1-1.1-5.5c-1.5-1.5-3.8-1.9-5.7-1
			c-0.3,0.1-0.7,0-0.8-0.3c-0.1-0.3,0-0.7,0.3-0.8c2.4-1.1,5.2-0.6,7,1.3c1.8,1.8,2.3,4.5,1.4,6.8C29.6,17.1,29.4,17.2,29.1,17.2
			L29.1,17.2z M29.1,17.2"/>
		<path class="st1" d="M34.5,19.4c-0.1,0-0.2,0-0.2,0c-0.3-0.1-0.5-0.5-0.3-0.8c1.7-4.1,0.7-8.7-2.4-11.8c-3.2-3.2-8.1-4.1-12.2-2.2
			c-0.3,0.1-0.7,0-0.8-0.3c-0.1-0.3,0-0.7,0.3-0.8c4.6-2.1,10-1.1,13.6,2.5c3.5,3.5,4.5,8.6,2.7,13.1C35,19.2,34.8,19.4,34.5,19.4
			L34.5,19.4z M34.5,19.4"/>
	</g>
</g>
</svg>
