<?xml version="1.0" encoding="utf-8"?>
<!-- Generator: Adobe Illustrator 22.0.1, SVG Export Plug-In . SVG Version: 6.00 Build 0)  -->
<svg version="1.1" id="Layer_1" xmlns="http://www.w3.org/2000/svg" xmlns:xlink="http://www.w3.org/1999/xlink" x="0px" y="0px"
	 viewBox="0 0 38 38" style="enable-background:new 0 0 38 38;" xml:space="preserve">
<style type="text/css">
	.st0{opacity:0.2;}
	.st1{fill:none;stroke:#002E5F;stroke-miterlimit:10;}
</style>
<g class="st0">
	<path class="st1" d="M37.1,1.6C37.1,1.6,37.1,1.5,37.1,1.6C37.1,1.5,37,1.5,37.1,1.6c-0.3-0.4-0.7-0.7-1.2-0.7H11.6
		c-0.8,0-1.4,0.6-1.4,1.4v29.1c0,0.3,0.1,0.6,0.2,0.8c0,0,0,0,0,0c0,0,0,0,0,0c0.3,0.4,0.7,0.6,1.2,0.6h1.8c-0.3,1.9-2,3.4-4,3.4
		c-2,0-3.7-1.5-4-3.5h1.8c0.8,0,1.4-0.6,1.4-1.4V2.3c0-0.3-0.1-0.5-0.2-0.8c0,0,0,0,0,0c0,0,0,0,0,0C8.1,1.1,7.7,0.8,7.2,0.8H2.3
		c-0.8,0-1.4,0.6-1.4,1.4v29.1c0,0.3,0.1,0.6,0.2,0.8c0,0,0,0,0,0c0,0,0,0,0,0c0.3,0.4,0.7,0.6,1.2,0.6h2.1c0.3,2.5,2.4,4.5,5,4.5
		c2.6,0,4.7-1.9,5-4.4h21.5c0.8,0,1.4-0.6,1.4-1.4V2.3C37.3,2,37.2,1.8,37.1,1.6L37.1,1.6z M19.4,22.5c0,0.3-0.3,0.6-0.6,0.6h-3.4
		c-0.3,0-0.6-0.3-0.6-0.6V21c0-0.3,0.3-0.6,0.6-0.6h3.4c0.3,0,0.6,0.3,0.6,0.6V22.5z M19.4,17.6c0,0.3-0.3,0.6-0.6,0.6h-3.4
		c-0.3,0-0.6-0.3-0.6-0.6v-1.4c0-0.3,0.3-0.6,0.6-0.6h3.4c0.3,0,0.6,0.3,0.6,0.6V17.6z M19.4,12.8c0,0.3-0.3,0.6-0.6,0.6h-3.4
		c-0.3,0-0.6-0.3-0.6-0.6v-1.4c0-0.3,0.3-0.6,0.6-0.6h3.4c0.3,0,0.6,0.3,0.6,0.6V12.8z M26,22.5c0,0.3-0.3,0.6-0.6,0.6h-3.4
		c-0.3,0-0.6-0.3-0.6-0.6V21c0-0.3,0.3-0.6,0.6-0.6h3.4c0.3,0,0.6,0.3,0.6,0.6V22.5z M26,17.6c0,0.3-0.3,0.6-0.6,0.6h-3.4
		c-0.3,0-0.6-0.3-0.6-0.6v-1.4c0-0.3,0.3-0.6,0.6-0.6h3.4c0.3,0,0.6,0.3,0.6,0.6V17.6z M26,12.8c0,0.3-0.3,0.6-0.6,0.6h-3.4
		c-0.3,0-0.6-0.3-0.6-0.6v-1.4c0-0.3,0.3-0.6,0.6-0.6h3.4c0.3,0,0.6,0.3,0.6,0.6V12.8z M32.7,22.5c0,0.3-0.3,0.6-0.6,0.6h-3.4
		c-0.3,0-0.6-0.3-0.6-0.6V21c0-0.3,0.3-0.6,0.6-0.6h3.4c0.3,0,0.6,0.3,0.6,0.6V22.5z M32.7,17.6c0,0.3-0.3,0.6-0.6,0.6h-3.4
		c-0.3,0-0.6-0.3-0.6-0.6v-1.4c0-0.3,0.3-0.6,0.6-0.6h3.4c0.3,0,0.6,0.3,0.6,0.6V17.6z M32.7,12.8c0,0.3-0.3,0.6-0.6,0.6h-3.4
		c-0.3,0-0.6-0.3-0.6-0.6v-1.4c0-0.3,0.3-0.6,0.6-0.6h3.4c0.3,0,0.6,0.3,0.6,0.6V12.8z M32.7,12.8"/>
</g>
</svg>
