<?xml version="1.0" encoding="utf-8"?>
<!-- Generator: Adobe Illustrator 22.0.1, SVG Export Plug-In . SVG Version: 6.00 Build 0)  -->
<svg version="1.1" id="Layer_1" xmlns="http://www.w3.org/2000/svg" xmlns:xlink="http://www.w3.org/1999/xlink" x="0px" y="0px"
	 viewBox="0 0 45 41" style="enable-background:new 0 0 45 41;" xml:space="preserve">
<style type="text/css">
	.st0{opacity:0.2;}
	.st1{fill:#002E5F;}
</style>
<g class="st0">
	<path class="st1" d="M42.3,1.1H2.7C1.2,1.1,0,2.3,0,3.8v26.7c0,1.5,1.2,2.7,2.7,2.7h39.6c1.5,0,2.7-1.2,2.7-2.7V3.8
		C45,2.3,43.8,1.1,42.3,1.1L42.3,1.1z M43.5,30.5c0,0.7-0.6,1.3-1.3,1.3H2.7c-0.7,0-1.3-0.6-1.3-1.3V3.8c0-0.7,0.6-1.3,1.3-1.3h39.6
		c0.7,0,1.3,0.6,1.3,1.3V30.5z M43.5,30.5"/>
	<path class="st1" d="M22.5,16.4c3.1,0,5.7-2.5,5.7-5.7c0-3.1-2.5-5.7-5.7-5.7s-5.7,2.5-5.7,5.7C16.8,13.8,19.4,16.4,22.5,16.4
		L22.5,16.4z M22.5,6.5c2.3,0,4.2,1.9,4.2,4.2s-1.9,4.2-4.2,4.2s-4.2-1.9-4.2-4.2S20.2,6.5,22.5,6.5L22.5,6.5z M22.5,6.5"/>
	<path class="st1" d="M14.9,24.3c0.4,0.2,0.8,0,0.9-0.4c1.1-2.7,3.7-4.5,6.7-4.5s5.6,1.8,6.7,4.5c0.1,0.3,0.4,0.5,0.7,0.5
		c0.1,0,0.2,0,0.3-0.1c0.4-0.2,0.6-0.6,0.4-0.9c-1.3-3.3-4.5-5.4-8-5.4s-6.7,2.1-8,5.4C14.3,23.7,14.5,24.1,14.9,24.3L14.9,24.3z
		 M14.9,24.3"/>
	<path class="st1" d="M41.4,26.8H3.6c-0.4,0-0.7,0.3-0.7,0.7c0,0.4,0.3,0.7,0.7,0.7h37.7c0.4,0,0.7-0.3,0.7-0.7
		C42.1,27.1,41.8,26.8,41.4,26.8L41.4,26.8z M41.4,26.8"/>
	<path class="st1" d="M34.4,39.7h-6.2v-4.3c0-0.4-0.3-0.7-0.7-0.7c-0.4,0-0.7,0.3-0.7,0.7v4.3h-8.4v-4.3c0-0.4-0.3-0.7-0.7-0.7
		c-0.4,0-0.7,0.3-0.7,0.7v4.3h-6.2c-0.4,0-0.7,0.3-0.7,0.7c0,0.4,0.3,0.7,0.7,0.7h23.8c0.4,0,0.7-0.3,0.7-0.7
		C35.1,40,34.8,39.7,34.4,39.7L34.4,39.7z M34.4,39.7"/>
</g>
</svg>
