<svg xmlns="http://www.w3.org/2000/svg" viewBox="0 0 90.27 51.17"><defs><style>.cls-1{fill:#1b315d;}.cls-2{fill:#005393;}</style></defs><title>book-a-meeting-rrom</title><g id="Layer_2" data-name="Layer 2"><g id="book-a-meeting-rrom"><path class="cls-1" d="M22.57,29.56H3V4H0V50.63H3V40.1h18V50.63h3V31.07A1.51,1.51,0,0,0,22.57,29.56ZM3,37.09V32.57h18v4.52Z"/><path class="cls-1" d="M87.26,4V29.56H67.7a1.52,1.52,0,0,0-1.51,1.51V50.63h3V40.1H87.26V50.63h3V4ZM69.2,37.09V32.57H87.26v4.52Z"/><path class="cls-2" d="M46.78,35.45V12h21a6,6,0,1,0,0-12H22.72a6,6,0,1,0,0,12H43.77V35.45L29.22,48.55a1.5,1.5,0,0,0,2,2.23L43.77,39.5V51.17h3V39.5L59.31,50.78a1.51,1.51,0,0,0,1,.39,1.48,1.48,0,0,0,1.11-.5,1.49,1.49,0,0,0-.11-2.12ZM22.72,9a3,3,0,1,1,0-6H67.83a3,3,0,1,1,0,6H22.72Z"/></g></g></svg>