<svg xmlns="http://www.w3.org/2000/svg" viewBox="0 0 35.17 19.94"><defs><style>.cls-1{fill:#fff;}</style></defs><title>book-a-meeting-room-white</title><g id="Layer_2" data-name="Layer 2"><g id="book-a-meeting-room-white"><g id="Layer_2-2" data-name="Layer 2"><g id="book-a-meeting-rrom"><path class="cls-1" d="M8.8,11.52H1.17v-10H0V19.73H1.17v-4.1h7v4.1H9.35V12.11A.58.58,0,0,0,8.8,11.52ZM1.17,14.45V12.69h7v1.76Z"/><path class="cls-1" d="M34,1.56v10H26.38a.6.6,0,0,0-.59.59v7.62H27v-4.1h7v4.1h1.16V1.56ZM27,14.45V12.69h7v1.76Z"/><path class="cls-1" d="M18.23,13.81V4.68h8.18a2.34,2.34,0,0,0,0-4.68H8.85a2.34,2.34,0,0,0,0,4.68h8.21v9.13l-5.67,5.11a.58.58,0,0,0,.78.87l4.89-4.4v4.55h1.17V15.39l4.88,4.4a.58.58,0,0,0,.39.15.6.6,0,0,0,.44-.19.58.58,0,0,0,0-.82h0ZM8.85,3.51a1.17,1.17,0,0,1,0-2.34H26.43a1.17,1.17,0,1,1,0,2.34Z"/></g></g></g></g></svg>