<svg xmlns="http://www.w3.org/2000/svg" viewBox="0 0 34.48 34.62"><defs><style>.cls-1{fill:#fff;}</style></defs><title>campus-map-white</title><g id="Layer_2" data-name="Layer 2"><g id="campus-map-white"><g id="Layer_2-2" data-name="Layer 2"><g id="campus-map"><path class="cls-1" d="M8.18,4.23A4.09,4.09,0,0,0,0,4V30.53H0v0a4.07,4.07,0,0,0,4.06,4H34.48V4.23Zm-7,0A2.92,2.92,0,0,1,3.52,1.37a.58.58,0,0,0,1.15,0A2.93,2.93,0,0,1,7,4.23V27.67a4.09,4.09,0,0,0-2.93-1.23H3.67l-.18,0-.22,0a.94.94,0,0,0-.24.06l-.16,0-.28.11-.09.05a3.59,3.59,0,0,0-.34.17h0a4.1,4.1,0,0,0-1,.73ZM33.31,33.45H4.06a2.91,2.91,0,0,1-2.89-2.9v0a2.93,2.93,0,0,1,5.85,0H8.18V5.39H33.33Z"/><path class="cls-1" d="M26.89,12.41a.6.6,0,0,0,.34.11.62.62,0,0,0,.49-.24.59.59,0,0,0-.15-.8l-.94-.69a.59.59,0,0,0-.82.13.6.6,0,0,0,.14.82Z"/><path class="cls-1" d="M29.76,14.44a.55.55,0,0,0,.33.11.58.58,0,0,0,.34-1.06l-1-.68a.59.59,0,0,0-.81.14.58.58,0,0,0,.14.81Z"/><path class="cls-1" d="M21.63,24.1a.57.57,0,0,0,.56.58h1.17a.58.58,0,0,0,.1-1.16H22.19a.58.58,0,0,0-.58.58h0Z"/><path class="cls-1" d="M29.81,16.15v1.16a.58.58,0,0,0,1.16,0V16.15A.58.58,0,1,0,29.81,16,.2.2,0,0,0,29.81,16.15Z"/><path class="cls-1" d="M24,10.39a.55.55,0,0,0,.33.11.62.62,0,0,0,.5-.25.58.58,0,0,0-.15-.81l-.95-.68a.6.6,0,0,0-.82.14.59.59,0,0,0,.14.81h0Z"/><path class="cls-1" d="M25.15,24.1a.58.58,0,0,0,.58.58H26.9A.58.58,0,1,0,27,23.52h-1.3A.58.58,0,0,0,25.15,24.1Z"/><path class="cls-1" d="M17,24.1a.58.58,0,0,0-.58-.58H15.2a.58.58,0,1,0-.11,1.16.21.21,0,0,0,.11,0h1.16a.58.58,0,0,0,.59-.57Z"/><path class="cls-1" d="M30.39,21.4a.58.58,0,0,0,.58-.58h0V19.65a.58.58,0,0,0-.53-.64.58.58,0,0,0-.63.53.21.21,0,0,0,0,.11v1.17a.58.58,0,0,0,.58.58Z"/><path class="cls-1" d="M21.16,8.37a.59.59,0,1,0,.69-1l-1-.67a.59.59,0,0,0-.81.14.58.58,0,0,0,.14.82Z"/><path class="cls-1" d="M29.81,23.52h-.59a.58.58,0,0,0-.53.63.57.57,0,0,0,.53.53H31V23.16a.58.58,0,0,0-.63-.53.56.56,0,0,0-.53.53Z"/><path class="cls-1" d="M11.69,24.68h1.17a.58.58,0,0,0,0-1.16H11.69a.58.58,0,1,0-.11,1.16A.2.2,0,0,0,11.69,24.68Z"/><path class="cls-1" d="M10.52,16.5a.6.6,0,0,0,.59-.58h0V14.75a.59.59,0,0,0-1.17,0v1.17a.57.57,0,0,0,.57.58Z"/><path class="cls-1" d="M12,13.74a.58.58,0,0,0,.34-.11l1-.67a.57.57,0,0,0,.09-.82.59.59,0,0,0-.76-.14l-1,.67a.6.6,0,0,0-.14.82A.58.58,0,0,0,12,13.74Z"/><path class="cls-1" d="M14.82,11.72a.57.57,0,0,0,.33-.11l1-.68a.56.56,0,0,0,.17-.79v0a.59.59,0,0,0-.82-.13h0l-.95.68a.58.58,0,0,0-.14.81.57.57,0,0,0,.48.25Z"/><path class="cls-1" d="M10.52,20a.59.59,0,0,0,.59-.59V18.26a.6.6,0,0,0-.54-.64.58.58,0,0,0-.63.53.21.21,0,0,0,0,.11v1.16a.57.57,0,0,0,.57.59Z"/><path class="cls-1" d="M17.68,9.7A.6.6,0,0,0,18,9.59L19,8.92a.59.59,0,0,0-.67-1l-.95.67a.59.59,0,0,0-.15.82h0a.62.62,0,0,0,.5.25Z"/><path class="cls-1" d="M18.12,24.1a.58.58,0,0,0,.58.58h1.17a.58.58,0,0,0,.53-.63.57.57,0,0,0-.53-.53H18.7a.58.58,0,0,0-.58.58Z"/><path class="cls-1" d="M10.52,23.52a.6.6,0,0,0,.59-.59V21.77a.59.59,0,0,0-.54-.64.58.58,0,0,0-.63.53.2.2,0,0,0,0,.11v1.16a.58.58,0,0,0,.57.59Z"/><path class="cls-1" d="M24,31.7h7.6V27H24Zm1.19-3.51h5.24v2.34H25.15Z"/><path class="cls-1" d="M12.86,17.67v1.17a.59.59,0,0,0,1.17,0V17.67a.59.59,0,0,0-1.17-.1Z"/><path class="cls-1" d="M18.12,15.92a.59.59,0,0,0-.59.58h0v1.17a.59.59,0,1,0,1.17.11.2.2,0,0,0,0-.11V16.5a.57.57,0,0,0-.57-.58Z"/><path class="cls-1" d="M14.61,17.09h1.17a.59.59,0,0,0,0-1.17H14.61a.58.58,0,1,0,0,1.16Z"/><path class="cls-1" d="M15.2,21.18a.6.6,0,0,0-.59-.59H13.44a.59.59,0,0,0,0,1.18h1.17A.6.6,0,0,0,15.2,21.18Z"/><path class="cls-1" d="M17,21.77h1.17a.6.6,0,0,0,.58-.59V20a.59.59,0,0,0-1.17-.11v.69H17a.59.59,0,0,0,0,1.18Z"/><path class="cls-1" d="M23.38,16.5a.58.58,0,0,0,.57.59h1.2a.59.59,0,0,0,0-1.17H24a.57.57,0,0,0-.58.58Z"/><path class="cls-1" d="M26.88,16.5v1.17a.59.59,0,0,0,1.17.11V16.5a.59.59,0,0,0-1.17,0Z"/><path class="cls-1" d="M27.47,21.77a.6.6,0,0,0,.58-.59V20a.59.59,0,0,0-1.17-.11v.69H26.3a.59.59,0,0,0,0,1.18Z"/><path class="cls-1" d="M22.79,19.42a.58.58,0,0,0,.59-.57h0V17.67a.59.59,0,0,0-1.17-.1.17.17,0,0,0,0,.1v1.17a.58.58,0,0,0,.58.58Z"/><path class="cls-1" d="M22.79,21.77H24a.59.59,0,0,0,0-1.18H22.79a.59.59,0,0,0,0,1.18Z"/><path class="cls-1" d="M22.19,27H19.28a.59.59,0,0,0,0,1.17h2.91a.59.59,0,0,0,0-1.17Z"/><path class="cls-1" d="M22.19,28.78H18.12a.58.58,0,0,0-.64.53.58.58,0,0,0,.53.63h4.18a.58.58,0,0,0,.53-.63A.59.59,0,0,0,22.19,28.78Z"/><path class="cls-1" d="M22.19,30.53H16.36a.58.58,0,0,0-.58.58.59.59,0,0,0,.58.59h5.83a.59.59,0,0,0,.58-.59A.58.58,0,0,0,22.19,30.53Z"/><path class="cls-1" d="M2.93,3.07a.59.59,0,1,1-.59-.59h0A.59.59,0,0,1,2.93,3.07Z"/><path class="cls-1" d="M6.41,3.07a.59.59,0,1,1-.59-.59.58.58,0,0,1,.59.58Z"/><path class="cls-1" d="M4.68,4.82a.59.59,0,1,1-.6-.59h0A.58.58,0,0,1,4.68,4.82Z"/><path class="cls-1" d="M2.93,6.55a.59.59,0,0,1-1.18,0A.6.6,0,0,1,2.34,6,.61.61,0,0,1,2.93,6.55Z"/><path class="cls-1" d="M6.41,6.55A.59.59,0,1,1,5.82,6a.59.59,0,0,1,.59.59Z"/><path class="cls-1" d="M2.93,10.08a.59.59,0,1,1-.61-.57h0a.59.59,0,0,1,.59.58h0Z"/><path class="cls-1" d="M6.41,10.08a.59.59,0,1,1-.6-.57h0A.59.59,0,0,1,6.41,10.08Z"/><path class="cls-1" d="M4.68,8.32a.59.59,0,1,1-.6-.58h0a.58.58,0,0,1,.59.58Z"/><path class="cls-1" d="M4.68,11.83a.59.59,0,0,1-1.18,0,.6.6,0,0,1,.59-.59h0a.59.59,0,0,1,.59.59Z"/><path class="cls-1" d="M2.93,13.58a.59.59,0,1,1-.6-.58h0A.6.6,0,0,1,2.93,13.58Z"/><path class="cls-1" d="M6.41,13.58a.58.58,0,0,1-.58.59.58.58,0,0,1-.59-.58A.59.59,0,0,1,5.82,13h0A.58.58,0,0,1,6.41,13.58Z"/><path class="cls-1" d="M2.93,17.09a.59.59,0,1,1-.59-.59h0A.59.59,0,0,1,2.93,17.09Z"/><path class="cls-1" d="M6.41,17.09a.59.59,0,1,1-.59-.59h0A.58.58,0,0,1,6.41,17.09Z"/><path class="cls-1" d="M4.68,15.34a.59.59,0,1,1-.59-.59h0A.58.58,0,0,1,4.68,15.34Z"/><path class="cls-1" d="M4.68,18.84a.59.59,0,1,1-.6-.58h0a.58.58,0,0,1,.59.58Z"/><path class="cls-1" d="M2.93,20.59a.59.59,0,1,1-.6-.58h0A.6.6,0,0,1,2.93,20.59Z"/><path class="cls-1" d="M6.41,20.59a.58.58,0,0,1-.58.59.58.58,0,0,1-.59-.58A.59.59,0,0,1,5.82,20h0A.58.58,0,0,1,6.41,20.59Z"/><path class="cls-1" d="M2.93,24.1a.59.59,0,1,1-.59-.58h0A.59.59,0,0,1,2.93,24.1Z"/><path class="cls-1" d="M6.41,24.1a.59.59,0,1,1-.59-.58h0a.57.57,0,0,1,.59.57Z"/><path class="cls-1" d="M4.68,22.33a.59.59,0,0,1-1.18.05.59.59,0,0,1,.57-.61h0A.58.58,0,0,1,4.68,22.33Z"/><path class="cls-1" d="M4.68,25.85a.59.59,0,1,1-.61-.56h0a.58.58,0,0,1,.59.58h0Z"/></g></g></g></g></svg>