<svg xmlns="http://www.w3.org/2000/svg" viewBox="0 0 69.93 69.93"><defs><style>.cls-1{fill:#003a71;}.cls-2{fill:#005295;}</style></defs><title>campus-map</title><g id="Layer_2" data-name="Layer 2"><g id="campus-map"><path class="cls-1" d="M16.59,8.3A8.3,8.3,0,1,0,0,8.3V61.64H0s0,0,0,.07a8.23,8.23,0,0,0,8.22,8.22H69.93V8.3ZM2.37,8.3A5.93,5.93,0,0,1,7.14,2.49a1.16,1.16,0,0,0,2.32,0A5.94,5.94,0,0,1,14.23,8.3V55.83A8.29,8.29,0,0,0,8.3,53.34c-.29,0-.57,0-.86,0l-.37.06-.45.07c-.17,0-.32.08-.48.12l-.32.08-.58.22L5.06,54c-.23.1-.46.21-.68.33h0a8.3,8.3,0,0,0-2,1.49ZM67.56,67.56H8.22a5.87,5.87,0,0,1-5.85-5.92,5.93,5.93,0,0,1,11.86,0h2.36v-51h51Z"/><path class="cls-2" d="M54.54,24.89a1.17,1.17,0,0,0,.68.22,1.22,1.22,0,0,0,1-.5A1.2,1.2,0,0,0,55.91,23L54,21.59a1.19,1.19,0,0,0-1.65.28,1.2,1.2,0,0,0,.28,1.66Z"/><path class="cls-2" d="M60.35,29a1.17,1.17,0,0,0,.68.22,1.18,1.18,0,0,0,.69-2.15l-1.94-1.37a1.18,1.18,0,0,0-1.37,1.93Z"/><path class="cls-2" d="M43.86,48.6A1.18,1.18,0,0,0,45,49.78h2.37a1.19,1.19,0,1,0,0-2.37H45a1.18,1.18,0,0,0-1.18,1.19Z"/><path class="cls-2" d="M60.45,32.46v2.37a1.19,1.19,0,0,0,2.37,0V32.46a1.19,1.19,0,1,0-2.37,0Z"/><path class="cls-2" d="M48.73,20.79a1.17,1.17,0,0,0,.68.22,1.22,1.22,0,0,0,1-.5,1.19,1.19,0,0,0-.29-1.65l-1.94-1.38a1.2,1.2,0,0,0-1.65.29,1.18,1.18,0,0,0,.29,1.65Z"/><path class="cls-2" d="M51,48.6a1.19,1.19,0,0,0,1.19,1.18h2.37a1.19,1.19,0,1,0,0-2.37H52.15A1.19,1.19,0,0,0,51,48.6Z"/><path class="cls-2" d="M34.37,48.6a1.18,1.18,0,0,0-1.19-1.19H30.82a1.19,1.19,0,1,0,0,2.37h2.36a1.18,1.18,0,0,0,1.19-1.18Z"/><path class="cls-2" d="M61.64,43.12a1.18,1.18,0,0,0,1.18-1.18V39.57a1.19,1.19,0,1,0-2.37,0v2.37a1.18,1.18,0,0,0,1.19,1.18Z"/><path class="cls-2" d="M42.92,16.69a1.17,1.17,0,0,0,.68.22,1.22,1.22,0,0,0,1-.5,1.21,1.21,0,0,0-.29-1.66l-1.94-1.36A1.18,1.18,0,1,0,41,15.33Z"/><path class="cls-2" d="M60.45,47.41H59.26a1.19,1.19,0,0,0,0,2.37h3.56v-3.1a1.19,1.19,0,0,0-2.37,0Z"/><path class="cls-2" d="M23.71,49.78h2.37a1.19,1.19,0,0,0,0-2.37H23.71a1.19,1.19,0,1,0,0,2.37Z"/><path class="cls-2" d="M21.33,33.18A1.18,1.18,0,0,0,22.52,32V29.63a1.19,1.19,0,0,0-2.37,0V32a1.17,1.17,0,0,0,1.18,1.17Z"/><path class="cls-2" d="M24.24,27.58a1.2,1.2,0,0,0,.69-.22L26.86,26a1.19,1.19,0,0,0-1.37-1.94l-1.94,1.36a1.19,1.19,0,0,0,.69,2.16Z"/><path class="cls-2" d="M30.05,23.48a1.21,1.21,0,0,0,.68-.21l1.94-1.38A1.17,1.17,0,0,0,33,20.24,1.19,1.19,0,0,0,31.3,20l-1.93,1.37a1.18,1.18,0,0,0,.68,2.15Z"/><path class="cls-2" d="M21.33,40.3a1.19,1.19,0,0,0,1.19-1.19V36.75a1.19,1.19,0,1,0-2.37,0v2.36a1.18,1.18,0,0,0,1.18,1.19Z"/><path class="cls-2" d="M35.86,19.38a1.15,1.15,0,0,0,.68-.22l1.94-1.36a1.19,1.19,0,0,0-1.37-1.94l-1.93,1.36a1.19,1.19,0,0,0-.29,1.66,1.2,1.2,0,0,0,1,.5Z"/><path class="cls-2" d="M36.75,48.6a1.18,1.18,0,0,0,1.18,1.18H40.3a1.19,1.19,0,0,0,0-2.37H37.93a1.18,1.18,0,0,0-1.18,1.19Z"/><path class="cls-2" d="M21.33,47.41a1.19,1.19,0,0,0,1.19-1.19V43.86a1.19,1.19,0,1,0-2.37,0v2.36a1.18,1.18,0,0,0,1.18,1.19Z"/><path class="cls-2" d="M48.6,64H64V54.52H48.6ZM51,56.89H61.64v4.75H51Z"/><path class="cls-2" d="M26.08,35.56v2.37a1.19,1.19,0,0,0,2.37,0V35.56a1.19,1.19,0,1,0-2.37,0Z"/><path class="cls-2" d="M36.75,32a1.18,1.18,0,0,0-1.19,1.17v2.38a1.19,1.19,0,1,0,2.37,0V33.18A1.17,1.17,0,0,0,36.75,32Z"/><path class="cls-2" d="M29.63,34.37H32A1.18,1.18,0,0,0,32,32H29.63a1.18,1.18,0,1,0,0,2.36Z"/><path class="cls-2" d="M30.82,42.67a1.19,1.19,0,0,0-1.19-1.19H27.26a1.19,1.19,0,0,0,0,2.38h2.37a1.19,1.19,0,0,0,1.19-1.19Z"/><path class="cls-2" d="M34.37,43.86h2.38a1.19,1.19,0,0,0,1.18-1.19V40.3a1.19,1.19,0,1,0-2.37,0v1.18H34.37a1.19,1.19,0,1,0,0,2.38Z"/><path class="cls-2" d="M47.41,33.18a1.18,1.18,0,0,0,1.19,1.19H51A1.18,1.18,0,1,0,51,32H48.6a1.18,1.18,0,0,0-1.19,1.17Z"/><path class="cls-2" d="M54.52,33.18v2.38a1.19,1.19,0,1,0,2.37,0V33.18a1.19,1.19,0,0,0-2.37,0Z"/><path class="cls-2" d="M55.71,43.86a1.19,1.19,0,0,0,1.18-1.19V40.3a1.19,1.19,0,1,0-2.37,0v1.18H53.34a1.19,1.19,0,0,0,0,2.38Z"/><path class="cls-2" d="M46.22,39.11a1.18,1.18,0,0,0,1.19-1.18V35.56a1.19,1.19,0,1,0-2.37,0v2.37a1.18,1.18,0,0,0,1.18,1.18Z"/><path class="cls-2" d="M46.22,43.86H48.6a1.19,1.19,0,0,0,0-2.38H46.22a1.19,1.19,0,0,0,0,2.38Z"/><path class="cls-2" d="M45,54.52H39.11a1.19,1.19,0,0,0,0,2.37H45a1.19,1.19,0,0,0,0-2.37Z"/><path class="cls-2" d="M45,58.08H36.75a1.19,1.19,0,1,0,0,2.37H45a1.19,1.19,0,0,0,0-2.37Z"/><path class="cls-2" d="M45,61.64H33.18a1.18,1.18,0,0,0,0,2.36H45a1.18,1.18,0,0,0,0-2.36Z"/><path class="cls-1" d="M5.93,5.93A1.19,1.19,0,1,1,4.74,4.74,1.19,1.19,0,0,1,5.93,5.93Z"/><path class="cls-1" d="M13,5.93a1.19,1.19,0,1,1-1.19-1.19A1.18,1.18,0,0,1,13,5.93Z"/><path class="cls-1" d="M9.48,9.48A1.19,1.19,0,1,1,8.3,8.3,1.18,1.18,0,0,1,9.48,9.48Z"/><path class="cls-1" d="M5.93,13a1.19,1.19,0,1,1-1.19-1.19A1.2,1.2,0,0,1,5.93,13Z"/><path class="cls-1" d="M13,13a1.19,1.19,0,1,1-1.19-1.19A1.19,1.19,0,0,1,13,13Z"/><path class="cls-1" d="M5.93,20.15A1.19,1.19,0,1,1,4.74,19a1.18,1.18,0,0,1,1.19,1.18Z"/><path class="cls-1" d="M13,20.15A1.19,1.19,0,1,1,11.85,19,1.18,1.18,0,0,1,13,20.15Z"/><path class="cls-1" d="M9.48,16.59A1.19,1.19,0,1,1,8.3,15.41a1.18,1.18,0,0,1,1.18,1.18Z"/><path class="cls-1" d="M9.48,23.71A1.19,1.19,0,1,1,8.3,22.52a1.18,1.18,0,0,1,1.18,1.19Z"/><path class="cls-1" d="M5.93,27.26a1.19,1.19,0,1,1-1.19-1.18,1.19,1.19,0,0,1,1.19,1.18Z"/><path class="cls-1" d="M13,27.26a1.19,1.19,0,1,1-1.19-1.18A1.19,1.19,0,0,1,13,27.26Z"/><path class="cls-1" d="M5.93,34.37a1.19,1.19,0,1,1-1.19-1.19,1.19,1.19,0,0,1,1.19,1.19Z"/><path class="cls-1" d="M13,34.37a1.19,1.19,0,1,1-1.19-1.19A1.19,1.19,0,0,1,13,34.37Z"/><path class="cls-1" d="M9.48,30.82A1.19,1.19,0,1,1,8.3,29.63a1.19,1.19,0,0,1,1.18,1.19Z"/><path class="cls-1" d="M9.48,37.93A1.19,1.19,0,1,1,8.3,36.75a1.18,1.18,0,0,1,1.18,1.18Z"/><path class="cls-1" d="M5.93,41.48A1.19,1.19,0,1,1,4.74,40.3a1.19,1.19,0,0,1,1.19,1.18Z"/><path class="cls-1" d="M13,41.48a1.19,1.19,0,1,1-1.19-1.18A1.19,1.19,0,0,1,13,41.48Z"/><path class="cls-1" d="M5.93,48.6a1.19,1.19,0,1,1-1.19-1.19A1.19,1.19,0,0,1,5.93,48.6Z"/><path class="cls-1" d="M13,48.6a1.19,1.19,0,1,1-1.19-1.19A1.18,1.18,0,0,1,13,48.6Z"/><path class="cls-1" d="M9.48,45A1.19,1.19,0,1,1,8.3,43.86,1.18,1.18,0,0,1,9.48,45Z"/><path class="cls-1" d="M9.48,52.15A1.19,1.19,0,1,1,8.3,51a1.18,1.18,0,0,1,1.18,1.19Z"/></g></g></svg>