<svg xmlns="http://www.w3.org/2000/svg" viewBox="0 0 28.19 28.63"><defs><style>.cls-1{fill:#002e5f;}</style></defs><title>coffee</title><g id="Layer_2" data-name="Layer 2"><g id="coffee"><path class="cls-1" d="M17.18,28.63H9a1.43,1.43,0,0,1-1.28-.79.38.38,0,0,0-.35-.25l-6.26-.44A1.21,1.21,0,0,1,0,26a1.27,1.27,0,0,1,1.28-1.28h24A1.28,1.28,0,0,1,26.61,26a1.22,1.22,0,0,1-1.09,1.19h-.05l-6.71.44a.38.38,0,0,0-.35.25A1.31,1.31,0,0,1,17.18,28.63ZM1.23,26.16l6.17.45a1.53,1.53,0,0,1,1.19.79.52.52,0,0,0,.39.24h8.25a.51.51,0,0,0,.39-.24,1.53,1.53,0,0,1,1.19-.79l6.61-.45c.25-.05.25-.15.25-.2a.32.32,0,0,0-.3-.29H1.28A.32.32,0,0,0,1,26C1,26,1,26.11,1.23,26.16Z"/><path class="cls-1" d="M13.33,8.89A.45.45,0,0,1,13,8.74a3.54,3.54,0,0,1-1.13-2.37A3.24,3.24,0,0,1,13,4.1a2.19,2.19,0,0,0,.84-1.58A2.54,2.54,0,0,0,13,.84a.47.47,0,0,1,0-.69.47.47,0,0,1,.69,0,3.26,3.26,0,0,1,1.14,2.37,3.16,3.16,0,0,1-1.14,2.27,2.19,2.19,0,0,0-.84,1.58,2.63,2.63,0,0,0,.84,1.68.47.47,0,0,1,0,.69A.43.43,0,0,1,13.33,8.89Z"/><path class="cls-1" d="M18.76,8.89a.45.45,0,0,1-.35-.15,3.54,3.54,0,0,1-1.13-2.37A3.24,3.24,0,0,1,18.41,4.1a2.32,2.32,0,0,0,.84-1.58A2.59,2.59,0,0,0,18.41.84a.47.47,0,0,1,0-.69.47.47,0,0,1,.69,0,3.18,3.18,0,0,1,1.14,2.37,3.06,3.06,0,0,1-1.19,2.27,2.19,2.19,0,0,0-.84,1.58,2.63,2.63,0,0,0,.84,1.68.47.47,0,0,1,0,.69A.34.34,0,0,1,18.76,8.89Z"/><path class="cls-1" d="M8.39,8.89a.42.42,0,0,1-.34-.15A3.56,3.56,0,0,1,6.91,6.37,3.25,3.25,0,0,1,8.05,4.1a2.32,2.32,0,0,0,.84-1.58A2.59,2.59,0,0,0,8.05.84a.47.47,0,0,1,0-.69.47.47,0,0,1,.69,0A3.17,3.17,0,0,1,9.87,2.52,3,3,0,0,1,8.69,4.79a2.16,2.16,0,0,0-.84,1.58,2.58,2.58,0,0,0,.84,1.68.47.47,0,0,1,0,.69A.36.36,0,0,1,8.39,8.89Z"/><path class="cls-1" d="M13.33,25.67C2.57,25.67,1,18.71,1,11.85a1,1,0,0,1,1-1H24.68a1,1,0,0,1,.69.3,1,1,0,0,1,.3.69C25.62,18.71,24.09,25.67,13.33,25.67ZM2,11.85C2,18.51,3.46,24.68,13.33,24.68s11.3-6.17,11.35-12.83Z"/><path class="cls-1" d="M21.52,22.31l.79-.94c2-2.51,2.37-6.12,2.42-9V12l.4-.14h.09c1.63,0,3,1.77,3,4a6.15,6.15,0,0,1-5.43,6.36Zm4.15-9.38c-.1,2.57-.4,5.53-1.88,8a5.14,5.14,0,0,0,3.36-5.08A3,3,0,0,0,25.67,12.93Z"/><path class="cls-1" d="M10.37,23.2h-.1c-3.9-.69-6-2.91-6.81-7.31a.54.54,0,0,1,.39-.59.54.54,0,0,1,.59.4c.74,3.95,2.52,5.92,6,6.51a.52.52,0,0,1,.4.6A.48.48,0,0,1,10.37,23.2Z"/></g></g></svg>