<svg xmlns="http://www.w3.org/2000/svg" viewBox="0 0 37.19 37.19"><defs><style>.cls-1{fill:#fff;}</style></defs><title>contact-us</title><g id="Layer_2" data-name="Layer 2"><g id="Layer_3" data-name="Layer 3"><path class="cls-1" d="M37.19,26.41A10.68,10.68,0,0,0,34,18.79l-1.64-1.64-3.6,3.59V18.31l-3-2.4V0H3V15.91l-3,2.4V37.19H28.79v-.28A10.79,10.79,0,0,0,37.19,26.41Zm-4.8-7.57.79.79.15.17L30,23.14,29,22.19ZM31.12,26a.6.6,0,0,1,0,.84l-2.33,2.33v-5.5Zm-3.53-3.53v7.9l-.78.78a.6.6,0,0,1-.84,0l-3.78-3.78-.61.62-2.74-2,8.75-6.18v2.19l-.25.25Zm-8,10.74-.79-.79L22.19,29l.95.95L19.8,33.33Zm7.56-14.62-1.4,1V17.44ZM4.2,1.2H24.59V20.39h0l-6.78,4.79-3.43-2.53L11,25.18,4.19,20.39h0ZM10,25.93,1.2,32.4V19.75ZM3,19.55l-1.4-1L3,17.44ZM1.2,36v-2.1l13.19-9.75,6.33,4.67-3.57,3.58L18.79,34a10.86,10.86,0,0,0,2.68,2Zm27.21-.22-.32.06h0a8,8,0,0,1-.82.11,7.89,7.89,0,0,1-.84.05,9.54,9.54,0,0,1-5.69-1.88L24,30.84,25.12,32a1.78,1.78,0,0,0,2.54,0l4.3-4.3a1.78,1.78,0,0,0,0-2.54L30.84,24l3.27-3.27a9.56,9.56,0,0,1-5.7,15.05Z"/><path class="cls-1" d="M23.39,2.4H5.4V13.2h18ZM22.19,12H6.6V3.6H22.19Z"/><rect class="cls-1" x="5.4" y="14.39" width="17.99" height="1.2"/><rect class="cls-1" x="5.4" y="16.79" width="17.99" height="1.2"/><rect class="cls-1" x="22.19" y="19.19" width="1.2" height="1.2"/><rect class="cls-1" x="19.79" y="19.19" width="1.2" height="1.2"/><rect class="cls-1" x="5.4" y="19.19" width="13.2" height="1.2"/></g></g></svg>