<svg xmlns="http://www.w3.org/2000/svg" viewBox="0 0 27.56 27.56"><defs><style>.cls-1{fill:#002e5f;}</style></defs><title>ethernet</title><g id="Layer_2" data-name="Layer 2"><g id="ethernet"><path class="cls-1" d="M25.06,0H2.51A2.51,2.51,0,0,0,0,2.51V25.06a2.5,2.5,0,0,0,2.51,2.5H25.06a2.5,2.5,0,0,0,2.5-2.5V2.51A2.5,2.5,0,0,0,25.06,0Zm1.25,25.06a1.25,1.25,0,0,1-1.25,1.25H2.51a1.25,1.25,0,0,1-1.26-1.25V2.51A1.25,1.25,0,0,1,2.51,1.25H25.06a1.25,1.25,0,0,1,1.25,1.26Z"/><path class="cls-1" d="M20.67,6.26H6.89A1.88,1.88,0,0,0,5,8.14v10A1.88,1.88,0,0,0,6.89,20H10v.63a1.88,1.88,0,0,0,1.88,1.88h3.76a1.88,1.88,0,0,0,1.88-1.88V20h3.13a1.88,1.88,0,0,0,1.88-1.88v-10A1.88,1.88,0,0,0,20.67,6.26Zm.63,11.9a.63.63,0,0,1-.63.63H16.91a.63.63,0,0,0-.62.63v1.25a.63.63,0,0,1-.63.63H11.9a.63.63,0,0,1-.63-.63V19.42a.63.63,0,0,0-.62-.63H6.89a.63.63,0,0,1-.63-.63v-10a.63.63,0,0,1,.63-.62h.63v3.13a.63.63,0,0,0,1.25,0V7.52h2.5v3.13a.63.63,0,0,0,1.26,0V7.52H15v3.13a.63.63,0,0,0,1.26,0V7.52h2.5v3.13a.63.63,0,0,0,1.25,0V7.52h.63a.63.63,0,0,1,.63.62Z"/></g></g></svg>