<svg xmlns="http://www.w3.org/2000/svg" viewBox="0 0 31.96 22.89"><defs><style>.cls-1{fill:#fff;}</style></defs><title>faq</title><g id="Layer_2" data-name="Layer 2"><g id="Layer_4" data-name="Layer 4"><path class="cls-1" d="M29.86,6.94H18.78a9.57,9.57,0,1,0-11.23,12L9.91,21.3a1.06,1.06,0,0,0,.73.3,1.14,1.14,0,0,0,.4-.08,1,1,0,0,0,.64-.95V18.91a10.51,10.51,0,0,0,1.13-.33v.07a2.1,2.1,0,0,0,2.1,2.1h3.53l1.88,1.88a.87.87,0,0,0,.62.26.83.83,0,0,0,.34-.07.87.87,0,0,0,.54-.81V20.75h8a2.1,2.1,0,0,0,2.1-2.1V9A2.1,2.1,0,0,0,29.86,6.94ZM11.09,18a.49.49,0,0,0-.41.49v2.07s0,0,0,0h0L8.15,18.12A.51.51,0,0,0,7.89,18a8.57,8.57,0,0,1,.7-16.92,8.57,8.57,0,0,1,2.5,17ZM31,18.65a1.1,1.1,0,0,1-1.1,1.1H21.32a.5.5,0,0,0-.5.5v1.46L19,19.9a.47.47,0,0,0-.35-.15H14.91a1.1,1.1,0,0,1-1.1-1.1v-.49a9.54,9.54,0,0,0,5.34-8.58A9.9,9.9,0,0,0,19,7.94H29.86A1.1,1.1,0,0,1,31,9Z"/><path class="cls-1" d="M27.37,10.82l-5,5-2.32-2.32a.5.5,0,1,0-.71.71L22,16.87a.52.52,0,0,0,.71,0l5.34-5.34a.5.5,0,1,0-.71-.71Z"/><path class="cls-1" d="M9.57,13.35h0a.5.5,0,0,0-.5.5h0a.51.51,0,0,0,.5.5h0a.51.51,0,0,0,.51-.5h0A.5.5,0,0,0,9.57,13.35Z"/><path class="cls-1" d="M9.57,4.81A3.17,3.17,0,0,0,6.41,8a.5.5,0,0,0,.5.51A.51.51,0,0,0,7.41,8a2.17,2.17,0,1,1,2.79,2.08,1.57,1.57,0,0,0-1.13,1.5v.16a.51.51,0,0,0,1,0v-.16a.56.56,0,0,1,.41-.54,3.19,3.19,0,0,0,2.25-3A3.21,3.21,0,0,0,9.57,4.81Z"/></g></g></svg>