<svg xmlns="http://www.w3.org/2000/svg" viewBox="0 0 29.47 27.89"><defs><style>.cls-1{fill:#002e5f;}</style></defs><title>headphones</title><g id="Layer_2" data-name="Layer 2"><g id="headphones"><path class="cls-1" d="M25.26,10.55a10.53,10.53,0,1,0-21,0v0A4.47,4.47,0,0,0,0,15v.52A4.47,4.47,0,0,0,4.47,20h.24l1.87,3a7,7,0,0,0,6,3.34H13a2.11,2.11,0,1,0,0-1H12.6a6,6,0,0,1-5.13-2.87L6,20h.36a1.07,1.07,0,0,0,1.06-1.06V11.58a1.07,1.07,0,0,0-1.06-1.06h-1a9.47,9.47,0,0,1,18.94,0H23.15a1.06,1.06,0,0,0-1,1.06v7.36a1.06,1.06,0,0,0,1,1.06H25a4.47,4.47,0,0,0,4.48-4.48V15a4.47,4.47,0,0,0-4.21-4.45ZM15,24.73a1.06,1.06,0,0,1,0,2.11,1.06,1.06,0,1,1,0-2.11ZM6.31,11.58v7.36H4.47a3.41,3.41,0,0,1-3.42-3.42V15a3.41,3.41,0,0,1,3.42-3.42Zm22.1,3.94A3.41,3.41,0,0,1,25,18.94H23.15V11.58H25A3.41,3.41,0,0,1,28.41,15Z"/><path class="cls-1" d="M19.1,4a2.06,2.06,0,0,1-.21-.13l-.21-.13a.49.49,0,0,0-.71.18.52.52,0,0,0,.18.71,1.52,1.52,0,0,1,.21.14,1.41,1.41,0,0,0,.24.13.52.52,0,0,0,.26.08.48.48,0,0,0,.45-.27A.54.54,0,0,0,19.1,4Z"/><path class="cls-1" d="M14.73,2.63A7.58,7.58,0,0,0,9,5.29.52.52,0,0,0,9,6a.54.54,0,0,0,.34.14A.47.47,0,0,0,9.73,6a6.68,6.68,0,0,1,5-2.29,6.79,6.79,0,0,1,1.42.16.57.57,0,0,0,.64-.39.57.57,0,0,0-.4-.64,7.16,7.16,0,0,0-1.66-.18Z"/></g></g></svg>