<svg xmlns="http://www.w3.org/2000/svg" viewBox="0 0 34.73 30.65"><defs><style>.cls-1{fill:#fff;}</style></defs><title>insider-news-white</title><g id="Layer_2" data-name="Layer 2"><g id="insider-news-white"><g id="Layer_2-2" data-name="Layer 2"><g id="insider-news"><path class="cls-1" d="M13.44,24.37H5.51a.79.79,0,0,0,0,1.57h7.93a.8.8,0,0,0,.85-.72.79.79,0,0,0-.73-.85Z"/><path class="cls-1" d="M25.31,24.37H17.38a.79.79,0,1,0-.12,1.57h8a.79.79,0,1,0,.12-1.57Z"/><path class="cls-1" d="M25.31,4.72H5.5a.79.79,0,0,0,0,1.57H25.31a.79.79,0,0,0,.85-.73.78.78,0,0,0-.73-.84Z"/><path class="cls-1" d="M25.31,8.65H17.38a.79.79,0,1,0-.12,1.57h8a.79.79,0,0,0,.85-.73.78.78,0,0,0-.73-.84Z"/><path class="cls-1" d="M25.31,12.6H17.38a.79.79,0,1,0-.12,1.57h8a.79.79,0,1,0,.12-1.57Z"/><path class="cls-1" d="M25.31,16.51H17.38a.78.78,0,0,0-.85.72.79.79,0,0,0,.73.85h8a.79.79,0,0,0,.85-.73.78.78,0,0,0-.73-.84A.24.24,0,0,0,25.31,16.51Z"/><path class="cls-1" d="M25.31,20.44H17.38A.79.79,0,1,0,17.26,22h8a.79.79,0,1,0,.12-1.57Z"/><path class="cls-1" d="M13.44,20.44H5.51a.79.79,0,0,0,0,1.57h7.93a.79.79,0,1,0,.12-1.57Z"/><path class="cls-1" d="M13.44,8.65H5.51a.78.78,0,0,0-.79.78h0v7.93a.79.79,0,0,0,.79.79h7.93a.79.79,0,0,0,.79-.78h0V9.43a.78.78,0,0,0-.79-.78Zm-.78,7.93H6.29V10.22h6.37Z"/><path class="cls-1" d="M33.17,3.93H30.8V1.6A1.58,1.58,0,0,0,29.25,0H1.57A1.57,1.57,0,0,0,0,1.57V26.73a3.93,3.93,0,0,0,3.93,3.92H30.8a3.92,3.92,0,0,0,3.93-3.92V5.5a1.57,1.57,0,0,0-1.57-1.57Zm0,22.8a2.37,2.37,0,0,1-2.37,2.36H3.93A2.36,2.36,0,0,1,1.6,26.73V1.57H29.24v24a2,2,0,0,0,2,2h0A.79.79,0,0,0,31.33,26h-.12a.41.41,0,0,1-.4-.39V5.5h2.36Z"/></g></g></g></g></svg>