<svg xmlns="http://www.w3.org/2000/svg" viewBox="0 0 74.45 65.69"><defs><style>.cls-1{fill:#005295;}.cls-2{fill:#003a71;}</style></defs><title>insider-news</title><g id="Layer_2" data-name="Layer 2"><g id="insider-news"><path class="cls-1" d="M28.8,52.22h-17a1.69,1.69,0,0,0,0,3.37h17a1.69,1.69,0,1,0,0-3.37Z"/><path class="cls-1" d="M54.24,52.22h-17a1.69,1.69,0,1,0,0,3.37h17a1.69,1.69,0,1,0,0-3.37Z"/><path class="cls-1" d="M54.24,10.11H11.79a1.69,1.69,0,0,0,0,3.37H54.24a1.69,1.69,0,1,0,0-3.37Z"/><path class="cls-1" d="M54.24,18.53h-17a1.69,1.69,0,1,0,0,3.37h17a1.69,1.69,0,1,0,0-3.37Z"/><path class="cls-1" d="M54.24,27h-17a1.69,1.69,0,1,0,0,3.37h17a1.69,1.69,0,1,0,0-3.37Z"/><path class="cls-1" d="M54.24,35.37h-17a1.69,1.69,0,1,0,0,3.37h17a1.69,1.69,0,1,0,0-3.37Z"/><path class="cls-1" d="M54.24,43.8h-17a1.69,1.69,0,1,0,0,3.37h17a1.69,1.69,0,1,0,0-3.37Z"/><path class="cls-1" d="M28.8,43.8h-17a1.69,1.69,0,0,0,0,3.37h17a1.69,1.69,0,1,0,0-3.37Z"/><path class="cls-1" d="M28.8,18.53h-17a1.68,1.68,0,0,0-1.68,1.68v17a1.68,1.68,0,0,0,1.68,1.68h17a1.68,1.68,0,0,0,1.69-1.68v-17a1.68,1.68,0,0,0-1.69-1.68Zm-1.68,17H13.48V21.9H27.12Z"/><path class="cls-2" d="M71.09,8.42H66v-5A3.37,3.37,0,0,0,62.66,0H3.37A3.37,3.37,0,0,0,0,3.37v53.9a8.43,8.43,0,0,0,8.42,8.42H66a8.42,8.42,0,0,0,8.42-8.42V11.79a3.37,3.37,0,0,0-3.36-3.37Zm0,48.85A5.07,5.07,0,0,1,66,62.33H8.42a5.06,5.06,0,0,1-5-5.06V3.37H62.66V54.75A4.22,4.22,0,0,0,66.87,59a1.69,1.69,0,1,0,0-3.37.85.85,0,0,1-.84-.84v-43h5.06Z"/></g></g></svg>