<svg xmlns="http://www.w3.org/2000/svg" viewBox="0 0 32.32 33.65"><defs><style>.cls-1{fill:#fff;}.cls-2{fill:none;stroke:#fff;stroke-miterlimit:10;}</style></defs><title>instant-booking-white</title><g id="Layer_2" data-name="Layer 2"><g id="instant-booking-white"><g id="Layer_2-2" data-name="Layer 2"><g id="instant-booking"><path class="cls-1" d="M19.6,16.25a1,1,0,0,0,0-2H12.74a1,1,0,0,0-1,1v5a1,1,0,0,0,1,1h5.84v3.53H12.74a1,1,0,1,0,0,2H19.6a1,1,0,0,0,1-1h0V20.24a1,1,0,0,0-1-1H13.75v-3Z"/><rect class="cls-2" x="0.5" y="2.66" width="31.32" height="6.94" rx="1.59" ry="1.59"/><rect class="cls-1" x="11.72" width="2.21" height="4.98" rx="0.87" ry="0.87"/><rect class="cls-1" x="4.36" width="2.07" height="4.98" rx="0.87" ry="0.87"/><rect class="cls-1" x="18.85" y="0.17" width="2.09" height="4.98" rx="0.87" ry="0.87"/><rect class="cls-1" x="25.64" y="0.17" width="2.23" height="4.98" rx="0.87" ry="0.87"/><path class="cls-2" d="M30.05,9.43V31.56a1.59,1.59,0,0,1-1.59,1.59h-25a1.63,1.63,0,0,1-1.59-1.59V9.43"/></g></g></g></g></svg>