<svg xmlns="http://www.w3.org/2000/svg" viewBox="0 0 61.02 62.92"><defs><style>.cls-1{fill:#005393;}.cls-2{fill:none;stroke:#1b315d;stroke-miterlimit:10;stroke-width:3px;}.cls-3{fill:#1b315d;}</style></defs><title>instant-booking</title><g id="Layer_2" data-name="Layer 2"><g id="instant-booking"><path class="cls-1" d="M36.88,30.1a1.88,1.88,0,0,0,0-3.76H24.17a1.89,1.89,0,0,0-1.89,1.88v9.27a1.89,1.89,0,0,0,1.89,1.89H35v6.54H24.17a1.88,1.88,0,1,0,0,3.76H36.88a1.88,1.88,0,0,0,1.88-1.88V37.49a1.88,1.88,0,0,0-1.88-1.88H26.05V30.1Z"/><rect class="cls-2" x="1.5" y="4.93" width="58.02" height="12.86" rx="2.95" ry="2.95"/><rect class="cls-3" x="22.28" width="4.09" height="9.22" rx="1.62" ry="1.62"/><rect class="cls-3" x="8.66" width="3.84" height="9.22" rx="1.62" ry="1.62"/><rect class="cls-3" x="35.5" y="0.32" width="3.87" height="9.22" rx="1.62" ry="1.62"/><rect class="cls-3" x="48.08" y="0.32" width="4.13" height="9.22" rx="1.62" ry="1.62"/><path class="cls-2" d="M56.24,17.47v41a2.94,2.94,0,0,1-2.94,2.94H7.08a3,3,0,0,1-2.95-2.94v-41"/></g></g></svg>