<svg xmlns="http://www.w3.org/2000/svg" viewBox="0 0 36.99 32.32"><defs><style>.cls-1{fill:#fff;}</style></defs><title>my-meetings-white</title><g id="Layer_2" data-name="Layer 2"><g id="my-meetings-white"><g id="Layer_2-2" data-name="Layer 2"><g id="my-meetings"><path class="cls-1" d="M18.46,32.32H.85c-.58,0-.71-.12-.73-.72,0-1.13-.12-2.26-.12-3.39a24,24,0,0,1,1.68-8.36c.09-.24.18-.49.29-.73.17-.39.41-.47.78-.25a7.88,7.88,0,0,0,2.39.91c.41.08.82.13,1.23.17a.56.56,0,0,1,.53.32,26.45,26.45,0,0,1,2.42,7.11c.14.7.12.7.83.7h2a.76.76,0,0,1,.39.08c.21.21.41.13.63.08a12.72,12.72,0,0,1,1.72-.33,1.62,1.62,0,0,1,.9.3c.31.2.31.58.09,1s-.19.36.21.44l1.44.31a1.08,1.08,0,0,1,.95,1.19v0c0,.23.06.27.26.26a1.41,1.41,0,0,1,.41,0,.91.91,0,0,0,1-.57.48.48,0,0,0,0-.29,1.44,1.44,0,0,1,.29-1.35,4.13,4.13,0,0,0,.41-.55A1.46,1.46,0,0,1,22.2,28a.56.56,0,0,0,.39-.21c.34-.41.65-.82,1-1.23a.49.49,0,0,1,.43-.15.54.54,0,0,1,.33.33.61.61,0,0,1-.13.41c-.2.28-.41.55-.63.82s-.11.21.09.24.56.14.82-.07a.57.57,0,0,1,.36-.06h2.36c.24,0,.31-.09.35-.3A26.87,26.87,0,0,1,30,20.36a.76.76,0,0,1,.72-.47,7.82,7.82,0,0,0,3.44-1c.48-.28.69-.21.9.3a25.72,25.72,0,0,1,1.77,6.62A30.32,30.32,0,0,1,37,30.29c0,.5-.08,1-.13,1.5s-.2.53-.66.53Zm10.2-.9h0a14,14,0,0,0,2.05,0,3.52,3.52,0,0,0,3-3.65V24.3a.61.61,0,0,1,.27-.47.52.52,0,0,1,.45.09.55.55,0,0,1,.13.41v3.78a3,3,0,0,1-.06.59,4.31,4.31,0,0,1-1.4,2.5c0,.05-.08.11-.13.17a.7.7,0,0,0,.19.06h2.55c.18,0,.25-.08.25-.25a20.94,20.94,0,0,0,.1-2.1c0-1.09-.1-2.19-.22-3.28a22.73,22.73,0,0,0-1.42-5.62c-.09-.26-.19-.32-.46-.19a7.54,7.54,0,0,1-2.83.8.58.58,0,0,0-.55.37A26.23,26.23,0,0,0,29,25.72c-.19.7-.32,1.42-.47,2.14,0,.07.06.21.11.21a1.34,1.34,0,0,0,1.23-.36,2,2,0,0,0,.58-1.38V23.49a.45.45,0,0,1,.38-.5.46.46,0,0,1,.51.39v.07c0,1.13,0,2.27-.07,3.39A2.38,2.38,0,0,1,28.76,29h-2c-.21,0-.3.08-.3.3v1.86c0,.22.08.29.3.28C27.44,31.41,28.05,31.42,28.66,31.42ZM2.33,26.37h0V24.23a.42.42,0,0,1,.83,0v1.86c0,.79,0,1.6.07,2.38a3.47,3.47,0,0,0,3.22,3h3.62c.25,0,.31-.09.3-.31v-1.8c0-.24-.08-.33-.33-.33h-2a1.67,1.67,0,0,1-.5,0,2.63,2.63,0,0,1-1.93-2.56c0-.95,0-1.89,0-2.84,0-.35.18-.56.46-.56s.43.2.44.57v2.83c0,.75.64,1.82,1.6,1.71.37,0,.39,0,.32-.41A25.15,25.15,0,0,0,6.24,21a.47.47,0,0,0-.35-.24,8.57,8.57,0,0,1-3-.84c-.22-.1-.3-.06-.39.16a23.47,23.47,0,0,0-1.61,7.4c-.07,1.2,0,2.41,0,3.61,0,.23.09.31.32.31H3.67A1.36,1.36,0,0,0,4,31.38a1.68,1.68,0,0,0-.18-.21,4,4,0,0,1-1.32-2.39C2.35,28,2.37,27.17,2.33,26.37Zm10.4,3.94v.75c0,.25.09.3.3.3h2.76c.52,0,1-.07,1.54-.12.08,0,.15-.11.23-.16a1.7,1.7,0,0,0-.22-.24s-.08,0-.12,0l-1.81-.37a.79.79,0,0,1-.7-.87.4.4,0,0,1,0-.15,3,3,0,0,1,.19-.41c.07-.13.08-.23-.12-.19-.61.12-1.23.26-1.84.41a.27.27,0,0,0-.24.28v.8Zm11.5,0v-.85a.25.25,0,0,0-.2-.3H24c-.32,0-.63-.11-1-.14a.46.46,0,0,0-.32.09c-.3.24-.48.26-.73,0s-.18-.1-.27,0-.41.49-.57.75a.4.4,0,0,0,0,.58.32.32,0,0,0,.13.1c.35.27.71.52,1.07.77a.75.75,0,0,0,.33.1H24c.21,0,.27-.09.26-.28v-.81Zm.87-.11v.95c0,.21.1.26.3.26s.27-.06.27-.25V29.24c0-.2-.1-.27-.29-.27s-.28.1-.28.29Zm-13.27,0v-1c0-.19-.07-.27-.27-.26s-.25.06-.25.23v2c0,.18.1.22.26.22s.26,0,.26-.22v-1Z"/><path class="cls-1" d="M2.18,16.53V16a2.76,2.76,0,0,0-.3-1.38,5.68,5.68,0,0,1-.71-3,3.45,3.45,0,0,1,3.16-3A4,4,0,0,1,6.46,9,3.34,3.34,0,0,0,9,9.25c.44-.12.63,0,.75.41a2.52,2.52,0,0,1-.59,2.56.66.66,0,0,0-.13.45c.06.72.19,1.45.21,2.18a9.71,9.71,0,0,1-.33,2.74,1.42,1.42,0,0,1-1.23,1.12l-.22,0c-.33,0-.49.13-.46.49s-.16.37-.41.38-.47-.13-.41-.39c.05-.46-.18-.64-.55-.82a4.52,4.52,0,0,1-1-.79A.41.41,0,0,1,4.47,17a.43.43,0,0,1,.11-.12c.21-.17.44-.14.67.1a2.37,2.37,0,0,0,1.91.87c.62,0,.76-.16.92-.77a10.6,10.6,0,0,0,.11-3.93c0-.23-.11-.32-.37-.25a5.12,5.12,0,0,1-2.55.13.47.47,0,0,0-.56.32s0,.06,0,.09a2.41,2.41,0,0,1-.17.58.76.76,0,0,1-.38.35c-.21.08-.37-.08-.48-.27a3.44,3.44,0,0,0-.35-.58c-.13-.15-.31-.29-.53-.15a.49.49,0,0,0-.21.62,1.16,1.16,0,0,0,1.1.88c.33,0,.52.22.5.49s-.21.41-.53.41a1.1,1.1,0,0,1-.31,0c-.21,0-.29,0-.29.24v1.7c0,.35-.13.5-.41.51s-.44-.14-.44-.49,0-.8,0-1.2Zm3.94-4.26a4.17,4.17,0,0,0,2.07-.5,1.43,1.43,0,0,0,.75-1.26c0-.26-.08-.32-.33-.28a4,4,0,0,1-2.5-.37,3.27,3.27,0,0,0-1.82-.35,2.61,2.61,0,0,0-2.22,3c0,.15.05.27.25.15a1.23,1.23,0,0,1,1.38.11c.17.12.25.07.37-.07a1.34,1.34,0,0,1,1.38-.48A4.91,4.91,0,0,0,6.12,12.27Z"/><path class="cls-1" d="M33.92,16.89v-.83c0-.27-.05-.37-.32-.27a.72.72,0,0,1-.25,0c-.33,0-.54-.16-.54-.44s.19-.43.5-.46a1.13,1.13,0,0,0,1.09-.82.5.5,0,0,0-.2-.66c-.23-.14-.41,0-.54.17a2.41,2.41,0,0,0-.33.5.48.48,0,0,1-.5.34.45.45,0,0,1-.41-.41c0-.18-.08-.37-.13-.55a.47.47,0,0,0-.51-.43l-.09,0a4.64,4.64,0,0,1-2.53-.17c-.24-.08-.31,0-.33.2,0,.87-.13,1.74-.11,2.6A10.59,10.59,0,0,0,29,17.37a.53.53,0,0,0,.46.44,2.22,2.22,0,0,0,2.06-.54c.11-.1.2-.22.3-.31a.41.41,0,0,1,.58-.08l.05,0a.4.4,0,0,1,.1.54l-.06.07a6.94,6.94,0,0,1-1.18.92c-.3.17-.44.31-.41.66a.42.42,0,0,1-.3.5.43.43,0,0,1-.25,0,.45.45,0,0,1-.37-.48c0-.29-.1-.36-.35-.37a2.45,2.45,0,0,1-.61-.13,1.21,1.21,0,0,1-.85-.86,8.87,8.87,0,0,1-.37-3.32c.07-.64.16-1.27.2-1.9a.88.88,0,0,0-.15-.49,2.9,2.9,0,0,1-.58-1.53.81.81,0,0,1,.2-.53,5.46,5.46,0,0,1,3.18-1.56,5.09,5.09,0,0,1,3.19.43,3.71,3.71,0,0,1,1.71,4.74c-.2.52-.47,1-.69,1.5a1,1,0,0,0,0,.37v2.27c0,.26-.1.45-.41.47a.38.38,0,0,1-.46-.29.28.28,0,0,1,0-.09v-.94ZM31.57,9.22c-.13,0-.3,0-.48,0a4.91,4.91,0,0,0-2.75,1.13c-.08.07-.17.2-.15.27a1.7,1.7,0,0,0,.93,1.27,4,4,0,0,0,2.4.25,1.31,1.31,0,0,1,1.37.47c.12.14.2.2.38.07a1.24,1.24,0,0,1,1.38-.1c.16.09.22.06.25-.12a2.5,2.5,0,0,0-.31-1.69A3.27,3.27,0,0,0,31.57,9.22Z"/><path class="cls-1" d="M22.37,2.1a4,4,0,0,1,2,2,4,4,0,0,1-.12,3.74.35.35,0,0,0,0,.44,10.78,10.78,0,0,1,.73,1,.6.6,0,0,1,.06.49.51.51,0,0,1-.42.18c-.66-.08-1.31-.2-2-.28a1.38,1.38,0,0,0-.61,0,4.15,4.15,0,1,1-2.13-8,1,1,0,0,0,.18,0c.43-.06.43-.06.39-.47a.44.44,0,0,0-.41-.46H13.14c-.34,0-.5.18-.51.53V5.63c0,.36.16.52.53.53h1.33c.44,0,.64.24.41.68a1.23,1.23,0,0,0-.13.41l.67-.51c.07.26.14.49.19.72a.3.3,0,0,1-.1.19l-1.8,1.46a.4.4,0,0,1-.52,0,.37.37,0,0,1-.07-.49l.71-1.4c0-.08.07-.17.14-.31h-.76a1.27,1.27,0,0,1-1.39-1.11,1.31,1.31,0,0,1,0-.28V1.4A1.3,1.3,0,0,1,13,0h.2q3.36,0,6.7,0A1.31,1.31,0,0,1,21.3,1.21V5.63a1.24,1.24,0,0,1-1.15,1.31h-2.7a2.22,2.22,0,0,0,.49.95,3.38,3.38,0,0,0,4,1,1.26,1.26,0,0,1,.61-.06c.38,0,.76.11,1.15.17l.15,0c-.16-.24-.3-.45-.46-.66a.47.47,0,0,1,0-.63,3.35,3.35,0,0,0-.82-4.65.36.36,0,0,1-.18-.34C22.38,2.55,22.37,2.36,22.37,2.1ZM20.5,4.2h0V2.69c0-.13,0-.23-.18-.21A3.38,3.38,0,0,0,17.25,6c0,.16.08.22.22.21h2.58c.34,0,.47-.16.47-.49Z"/></g></g></g></g></svg>