<svg xmlns="http://www.w3.org/2000/svg" viewBox="0 0 90.07 78.67"><defs><style>.cls-1{fill:#1b315d;}.cls-2{fill:#005393;}</style></defs><title>my-meetings</title><g id="Layer_2" data-name="Layer 2"><g id="my-meetings"><path class="cls-1" d="M44.94,78.67H2.08c-1.42,0-1.73-.28-1.79-1.74C.18,74.18,0,71.43,0,68.68A58.71,58.71,0,0,1,4.08,48.32c.23-.59.46-1.19.72-1.77.42-.95,1-1.15,1.89-.63a18.63,18.63,0,0,0,5.83,2.23,28.05,28.05,0,0,0,3,.4,1.37,1.37,0,0,1,1.27.8,64,64,0,0,1,5.91,17.31c.32,1.69.28,1.69,2,1.69s3.22,0,4.83,0a1.55,1.55,0,0,1,.94.21c.51.51,1,.3,1.55.18a31.89,31.89,0,0,1,4.19-.8,4,4,0,0,1,2.18.72c.76.49.76,1.42.23,2.42s-.47.87.51,1.08c1.17.24,2.34.47,3.51.74a2.62,2.62,0,0,1,2.29,3c0,.56.14.66.62.63a3.29,3.29,0,0,1,1,0A2.19,2.19,0,0,0,49,75.14a1,1,0,0,0,.1-.7,3.51,3.51,0,0,1,.72-3.29c.36-.43.71-.87,1-1.34a3.49,3.49,0,0,1,3.22-1.69A1.42,1.42,0,0,0,55,67.6c.83-1,1.58-2,2.43-3a1.31,1.31,0,0,1,1.06-.37,1.35,1.35,0,0,1,.79.81,1.48,1.48,0,0,1-.31,1c-.48.69-1,1.33-1.55,2-.27.34-.26.5.23.58.7.12,1.36.35,2-.17a1.55,1.55,0,0,1,.88-.15c1.92,0,3.83,0,5.75,0,.57,0,.75-.22.84-.73a64.67,64.67,0,0,1,5.9-18,1.81,1.81,0,0,1,1.75-1.16A18.69,18.69,0,0,0,83.15,46c1.17-.67,1.66-.51,2.18.73a62.07,62.07,0,0,1,4.3,16.12A74.32,74.32,0,0,1,90,73.74c0,1.22-.18,2.44-.3,3.65-.1,1-.5,1.28-1.62,1.28Zm24.83-2.19v0a32.94,32.94,0,0,0,5,0,8.57,8.57,0,0,0,7.43-8.89c0-2.81,0-5.62,0-8.43A1.49,1.49,0,0,1,82.85,58a1.3,1.3,0,0,1,1.1.22,1.36,1.36,0,0,1,.31,1c0,3.07,0,6.13,0,9.2a9.89,9.89,0,0,1-.14,1.44,10.6,10.6,0,0,1-3.41,6.1c-.12.12-.21.27-.32.4a1.59,1.59,0,0,0,.47.14c2.07,0,4.14,0,6.2,0,.43,0,.6-.18.62-.59.09-1.7.3-3.41.24-5.11q-.12-4-.54-8a55.3,55.3,0,0,0-3.45-13.67c-.24-.65-.48-.79-1.14-.46a18.74,18.74,0,0,1-6.87,1.94,1.4,1.4,0,0,0-1.34.89,64.6,64.6,0,0,0-4.11,11.1c-.46,1.72-.78,3.47-1.13,5.22,0,.16.15.51.26.52a3.32,3.32,0,0,0,3-.88,4.89,4.89,0,0,0,1.41-3.37c0-2.3,0-4.6,0-6.9a1.09,1.09,0,1,1,2.17-.11c0,2.76.07,5.53-.17,8.26a5.84,5.84,0,0,1-6,5.24c-1.59,0-3.17,0-4.76,0-.51,0-.73.18-.73.72,0,1.51,0,3,0,4.52,0,.54.19.71.72.7C66.8,76.46,68.28,76.48,69.77,76.48ZM5.68,64.18h.1c0-1.74,0-3.48,0-5.21a1,1,0,0,1,1-1,1,1,0,0,1,1,1.06c0,1.48,0,3,0,4.45,0,1.94,0,3.89.17,5.81a8.5,8.5,0,0,0,7.86,7.23c2.94,0,5.88,0,8.81,0,.6,0,.74-.23.73-.77,0-1.45,0-2.91,0-4.37,0-.59-.2-.81-.8-.8-1.63,0-3.27,0-4.91,0a5.45,5.45,0,0,1-1.21-.1,6.47,6.47,0,0,1-4.71-6.25c-.05-2.3,0-4.6,0-6.9,0-.86.44-1.37,1.12-1.37s1.06.5,1.07,1.38c0,2.3,0,4.6,0,6.9,0,1.82,1.58,4.42,3.9,4.16.92-.1.95,0,.78-1a61.68,61.68,0,0,0-5.39-16.19,1.22,1.22,0,0,0-.86-.58A20.75,20.75,0,0,1,7.1,48.59c-.52-.26-.73-.16-.94.38A57.38,57.38,0,0,0,2.23,67c-.15,2.92.07,5.85.11,8.78,0,.56.21.76.78.75,1.94,0,3.88,0,5.82,0a5.42,5.42,0,0,0,.7-.14,5.27,5.27,0,0,0-.43-.51A9.67,9.67,0,0,1,6,70.06C5.73,68.12,5.77,66.14,5.68,64.18ZM31,73.78c0,.62,0,1.23,0,1.84s.2.72.72.71c2.24,0,4.49,0,6.73,0,1.25,0,2.49-.16,3.73-.28.2,0,.37-.27.56-.4a7.17,7.17,0,0,0-.52-.58c-.06-.06-.2,0-.3-.06l-4.41-.92a1.92,1.92,0,0,1-1.63-2.47,5.38,5.38,0,0,1,.48-1c.17-.33.18-.57-.3-.47-1.49.31-3,.65-4.48,1a.64.64,0,0,0-.58.75C31,72.51,31,73.15,31,73.78Zm28,0c0-.69,0-1.38,0-2.07a.63.63,0,0,0-.66-.74c-.78-.1-1.55-.28-2.34-.36a1.23,1.23,0,0,0-.79.23c-.73.59-1.17.64-1.78,0-.29-.33-.44-.24-.64,0-.46.61-1,1.2-1.39,1.83a1,1,0,0,0,.26,1.65c.85.65,1.72,1.27,2.61,1.88a1.65,1.65,0,0,0,.79.23c1.09,0,2.19,0,3.29,0,.51,0,.67-.21.65-.68C59,75.14,59,74.48,59,73.82Zm2.12-.26c0,.77,0,1.53,0,2.3,0,.51.24.64.71.63s.66-.14.66-.6q0-2.34,0-4.68c0-.49-.23-.66-.71-.66s-.67.26-.66.71Zm-32.33,0c0-.79,0-1.58,0-2.37,0-.45-.17-.65-.64-.64s-.62.16-.62.57V76c0,.44.24.54.64.54s.63-.1.62-.55C28.79,75.15,28.8,74.36,28.8,73.57Z"/><path class="cls-1" d="M5.31,40.24c0-.4,0-.81,0-1.22a6.74,6.74,0,0,0-.73-3.35,13.76,13.76,0,0,1-1.72-7.24A8.41,8.41,0,0,1,10.54,21a9.8,9.8,0,0,1,5.18,1,8.17,8.17,0,0,0,6.1.51c1.07-.28,1.52,0,1.82,1a6.11,6.11,0,0,1-1.44,6.24,1.55,1.55,0,0,0-.31,1.08c.14,1.77.45,3.54.51,5.32a23.16,23.16,0,0,1-.81,6.66,3.49,3.49,0,0,1-3,2.74,2.49,2.49,0,0,1-.53.07c-.81,0-1.18.32-1.12,1.19,0,.6-.39.91-1,.92s-1.13-.32-1-.94c.13-1.12-.42-1.56-1.34-2a10.7,10.7,0,0,1-2.44-1.93,1,1,0,0,1,0-1.67c.51-.42,1.06-.35,1.61.25a5.79,5.79,0,0,0,4.65,2.1c1.52-.07,1.86-.39,2.24-1.87a25.26,25.26,0,0,0,.27-9.57c-.07-.55-.27-.78-.89-.61a12.53,12.53,0,0,1-6.2.33,1.11,1.11,0,0,0-1.41,1A6.54,6.54,0,0,1,11,34.22a1.85,1.85,0,0,1-.93.86c-.51.18-.89-.19-1.15-.66A8.2,8.2,0,0,0,8.05,33c-.31-.36-.74-.7-1.27-.37a1.21,1.21,0,0,0-.52,1.53A2.81,2.81,0,0,0,8.94,36.3c.79.07,1.26.53,1.22,1.19s-.53,1-1.3,1a2.71,2.71,0,0,1-.75-.1c-.51-.12-.71,0-.7.57q0,2.07,0,4.14c0,.85-.32,1.22-1,1.24S5.34,44,5.32,43.16s0-1.94,0-2.92Zm9.58-10.37a10.31,10.31,0,0,0,5.05-1.22,3.53,3.53,0,0,0,1.83-3.07c.05-.64-.21-.79-.81-.69A9.63,9.63,0,0,1,14.87,24a7.87,7.87,0,0,0-4.42-.86c-3.31.25-6.15,4-5.41,7.24.08.36.12.65.61.36A3,3,0,0,1,9,31c.43.3.62.19.92-.16a3.21,3.21,0,0,1,3.34-1.16A13.6,13.6,0,0,0,14.89,29.87Z"/><path class="cls-1" d="M82.59,41.1c0-.67,0-1.33,0-2s-.12-.91-.8-.66a2,2,0,0,1-.6.05c-.81,0-1.3-.4-1.3-1.07s.45-1.05,1.2-1.12a2.8,2.8,0,0,0,2.67-2,1.25,1.25,0,0,0-.49-1.61c-.56-.35-1,.05-1.33.42a5.42,5.42,0,0,0-.79,1.2c-.26.52-.59.91-1.22.84a1.1,1.1,0,0,1-1-1c-.09-.45-.19-.9-.31-1.34a1.15,1.15,0,0,0-1.48-1A11.3,11.3,0,0,1,71,31.4c-.58-.2-.77,0-.8.49-.12,2.11-.32,4.22-.28,6.33a27.1,27.1,0,0,0,.68,4.06,1.3,1.3,0,0,0,1.13,1.08,5.42,5.42,0,0,0,5-1.33c.27-.24.49-.52.75-.76a1,1,0,0,1,1.51-.08.94.94,0,0,1,.1,1.49,16.25,16.25,0,0,1-2.87,2.23c-.73.41-1.06.76-1,1.61a1,1,0,0,1-1.34,1.18A1.06,1.06,0,0,1,73,46.53c0-.69-.26-.86-.87-.9a6,6,0,0,1-1.49-.31,3,3,0,0,1-2.07-2.08,21.71,21.71,0,0,1-.88-8.09c.15-1.55.37-3.09.49-4.63a2.12,2.12,0,0,0-.38-1.18A7.14,7.14,0,0,1,66.4,25.6a1.88,1.88,0,0,1,.47-1.28,13.46,13.46,0,0,1,7.76-3.81,12.28,12.28,0,0,1,7.75,1.06,9,9,0,0,1,4.16,11.54c-.47,1.25-1.13,2.43-1.66,3.65a2.27,2.27,0,0,0-.14.9c0,1.84,0,3.68,0,5.52,0,.63-.24,1.1-1,1.15a.94.94,0,0,1-1.14-.94c0-.76,0-1.53,0-2.29ZM76.86,22.45c-.31,0-.74.05-1.17.1A12,12,0,0,0,69,25.31c-.19.16-.42.49-.37.67.38,1.29.86,2.51,2.26,3.08a9.76,9.76,0,0,0,5.84.61,3.18,3.18,0,0,1,3.34,1.15c.29.34.49.47.92.17a3,3,0,0,1,3.38-.24c.38.22.52.14.59-.29a6.13,6.13,0,0,0-.75-4.13C82.66,23.5,80,22.56,76.86,22.45Z"/><path class="cls-2" d="M54.47,5.1a9.73,9.73,0,0,1,4.81,4.8A9.82,9.82,0,0,1,59,19a.85.85,0,0,0,.08,1.07,29.79,29.79,0,0,1,1.79,2.54A1.44,1.44,0,0,1,61,23.79a1.19,1.19,0,0,1-1,.44c-1.61-.18-3.21-.47-4.82-.67a3.35,3.35,0,0,0-1.48.1A10.09,10.09,0,1,1,48.53,4.25c.15,0,.29-.07.44-.09C50,4,50,4,49.91,3A1.06,1.06,0,0,0,48.69,1.9q-8.36,0-16.7,0c-.82,0-1.22.42-1.23,1.27V13.71c0,.87.37,1.26,1.29,1.28s2.15,0,3.23,0,1.56.58,1,1.66a3,3,0,0,0-.33,1l1.63-1.24c.18.63.36,1.18.48,1.75,0,.13-.12.35-.25.45q-2.18,1.8-4.38,3.57a1,1,0,0,1-1.28.07A.92.92,0,0,1,32,21.05c.56-1.13,1.14-2.26,1.71-3.4.1-.2.18-.41.34-.77H32.21a3.06,3.06,0,0,1-3.38-3.38c0-3.37,0-6.73,0-10.1A3.14,3.14,0,0,1,32.19,0Q40.35.09,48.5,0a3.16,3.16,0,0,1,3.36,3.35c0,3.45,0,6.9,0,10.35a3,3,0,0,1-3.19,3.18H42.48a5.63,5.63,0,0,0,1.19,2.32,8.24,8.24,0,0,0,9.75,2.55,3.14,3.14,0,0,1,1.47-.14c.94.09,1.87.27,2.81.41a1.94,1.94,0,0,0,.37-.05c-.4-.57-.74-1.1-1.12-1.59a1.17,1.17,0,0,1,0-1.55,8.14,8.14,0,0,0-2-11.31.87.87,0,0,1-.43-.83C54.49,6.21,54.47,5.73,54.47,5.1Zm-4.56,5.11h0V6.53c0-.3,0-.54-.43-.51A8.24,8.24,0,0,0,42,14.48c0,.39.19.53.54.52h1.59c1.56,0,3.13,0,4.69,0,.82,0,1.13-.4,1.14-1.21Z"/></g></g></svg>