<svg xmlns="http://www.w3.org/2000/svg" viewBox="0 0 36.74 38.26"><defs><style>.cls-1{fill:#fff;}</style></defs><title>notifications</title><g id="Layer_2" data-name="Layer 2"><g id="Layer_1-2" data-name="Layer 1"><path class="cls-1" d="M36.74,33.47H0v-.81a7,7,0,0,1,5.41-6.75V16.56a13,13,0,0,1,25.92,0v9.35a7,7,0,0,1,5.4,6.75ZM1.67,31.87h33.4a5.39,5.39,0,0,0-4.64-4.49l-.7-.09V16.56A11.36,11.36,0,0,0,7,16.56V27.29l-.7.09a5.36,5.36,0,0,0-4.64,4.49Z"/><path class="cls-1" d="M16.14,4.79h-1.6v-1a3.83,3.83,0,1,1,7.66,0v.94H20.6V3.83a2.23,2.23,0,1,0-4.46,0Z"/><path class="cls-1" d="M18.36,38.26a6.67,6.67,0,0,1-6.53-5.32l1.56-.32a5.07,5.07,0,0,0,10-.1l1.57.29a6.65,6.65,0,0,1-6.55,5.45Z"/><rect class="cls-1" x="6.21" y="25.79" width="2.95" height="1.6"/><rect class="cls-1" x="13.77" y="25.79" width="16.76" height="1.6"/></g></g></svg>