<svg xmlns="http://www.w3.org/2000/svg" viewBox="0 0 28.48 28.5"><defs><style>.cls-1{fill:#002e5f;}</style></defs><title>phone</title><g id="Layer_2" data-name="Layer 2"><g id="phone"><path class="cls-1" d="M28.31.56l0,0,0,0a1.12,1.12,0,0,0-.9-.46h-19A1.12,1.12,0,0,0,7.27,1.17V23.93a1.12,1.12,0,0,0,.18.61v0s0,0,0,0a1.12,1.12,0,0,0,.9.46h1.4A3.15,3.15,0,0,1,3.54,25h1.4a1.12,1.12,0,0,0,1.12-1.12V1.11a1.11,1.11,0,0,0-.18-.6l0,0a0,0,0,0,0,0,0A1.15,1.15,0,0,0,4.94,0H1.11A1.11,1.11,0,0,0,0,1.11V23.88a1.12,1.12,0,0,0,.18.61s0,0,0,0l0,0a1.12,1.12,0,0,0,.9.46H2.78a3.9,3.9,0,0,0,7.75.05H27.37a1.12,1.12,0,0,0,1.11-1.12V1.17a1.12,1.12,0,0,0-.17-.61ZM14.46,16.9a.48.48,0,0,1-.48.47H11.35a.48.48,0,0,1-.48-.47V15.78a.49.49,0,0,1,.48-.48H14a.49.49,0,0,1,.48.48Zm0-3.79a.49.49,0,0,1-.48.48H11.35a.49.49,0,0,1-.48-.48V12a.49.49,0,0,1,.48-.48H14a.49.49,0,0,1,.48.48Zm0-3.79a.48.48,0,0,1-.48.47H11.35a.48.48,0,0,1-.48-.47V8.21a.48.48,0,0,1,.48-.48H14a.48.48,0,0,1,.48.48Zm5.21,7.58a.47.47,0,0,1-.48.47H16.56a.48.48,0,0,1-.48-.47V15.78a.49.49,0,0,1,.48-.48h2.63a.48.48,0,0,1,.48.48Zm0-3.79a.48.48,0,0,1-.48.48H16.56a.49.49,0,0,1-.48-.48V12a.49.49,0,0,1,.48-.48h2.63a.48.48,0,0,1,.48.48Zm0-3.79a.47.47,0,0,1-.48.47H16.56a.48.48,0,0,1-.48-.47V8.21a.48.48,0,0,1,.48-.48h2.63a.47.47,0,0,1,.48.48Zm5.21,7.58a.47.47,0,0,1-.48.47H21.77a.47.47,0,0,1-.47-.47V15.78a.48.48,0,0,1,.47-.48H24.4a.48.48,0,0,1,.48.48Zm0-3.79a.48.48,0,0,1-.48.48H21.77a.48.48,0,0,1-.47-.48V12a.48.48,0,0,1,.47-.48H24.4a.48.48,0,0,1,.48.48Zm0-3.79a.47.47,0,0,1-.48.47H21.77a.47.47,0,0,1-.47-.47V8.21a.47.47,0,0,1,.47-.48H24.4a.47.47,0,0,1,.48.48Z"/></g></g></svg>