<svg xmlns="http://www.w3.org/2000/svg" viewBox="0 0 35.55 36.27"><defs><style>.cls-1{fill:none;stroke:#fff;stroke-miterlimit:10;}.cls-2{fill:#fff;}</style></defs><title>points-of-interest-white</title><g id="Layer_2" data-name="Layer 2"><g id="points-of-interest-white"><g id="Layer_2-2" data-name="Layer 2"><g id="points-of-interest"><path class="cls-1" d="M21.26,10.53h11a.46.46,0,0,0,.33-.13L34.9,8.27a.48.48,0,0,0,0-.69l0,0L32.61,5.42a.46.46,0,0,0-.33-.13h-11a.49.49,0,0,0-.49.49V10A.49.49,0,0,0,21.26,10.53Z"/><path class="cls-1" d="M32.61,14.86a.47.47,0,0,0-.33-.14h-11a.49.49,0,0,0-.49.49v4.27a.49.49,0,0,0,.49.49h11a.51.51,0,0,0,.33-.13L34.9,17.7a.48.48,0,0,0,0-.69l0,0Z"/><path class="cls-1" d="M14.79,15.14V10.86a.49.49,0,0,0-.49-.49h-11a.47.47,0,0,0-.34.13L.66,12.64A.48.48,0,0,0,.5,13a.48.48,0,0,0,.16.35l2.28,2.14a.51.51,0,0,0,.34.13h11a.49.49,0,0,0,.49-.49Z"/><path class="cls-2" d="M21.07,33.34H19.36V3.42a.32.32,0,0,0,0-.14l-1.19-3a.4.4,0,0,0-.5-.23.41.41,0,0,0-.22.23L16.23,3.3a.32.32,0,0,0,0,.14v29.9H14.48a1.47,1.47,0,1,0,0,2.93h6.59a1.47,1.47,0,1,0,0-2.93Z"/></g></g></g></g></svg>