<svg xmlns="http://www.w3.org/2000/svg" viewBox="0 0 72.74 74.26"><defs><style>.cls-1{fill:none;stroke:#005393;stroke-miterlimit:10;stroke-width:2px;}.cls-2{fill:#1b315d;}</style></defs><title>points-of-interest</title><g id="Layer_2" data-name="Layer 2"><g id="points-of-interest"><path class="cls-1" d="M43.49,21.56H66.05a1,1,0,0,0,.69-.27l4.68-4.37a1,1,0,0,0,0-1.46l-4.68-4.37a1,1,0,0,0-.69-.27H43.49a1,1,0,0,0-1,1v8.74a1,1,0,0,0,1,1Z"/><path class="cls-1" d="M66.74,30.41a1,1,0,0,0-.69-.27H43.49a1,1,0,0,0-1,1v8.74a1,1,0,0,0,1,1H66.05a1,1,0,0,0,.69-.27l4.68-4.37a1,1,0,0,0,0-1.46Z"/><path class="cls-1" d="M30.25,31V22.22a1,1,0,0,0-1-1H6.69a1,1,0,0,0-.69.27L1.32,25.87A1,1,0,0,0,1,26.6a1,1,0,0,0,.32.73L6,31.7a1,1,0,0,0,.69.27H29.25a1,1,0,0,0,1-1Z"/><path class="cls-2" d="M43.12,68.25H39.6V7a.72.72,0,0,0-.06-.29L37.11.51a.79.79,0,0,0-1.48,0L33.2,6.75a.72.72,0,0,0-.06.29V68.25H29.62a3,3,0,1,0,0,6h13.5a3,3,0,0,0,0-6Z"/></g></g></svg>