<?xml version="1.0" encoding="utf-8"?>
<!-- Generator: Adobe Illustrator 22.0.1, SVG Export Plug-In . SVG Version: 6.00 Build 0)  -->
<svg version="1.1" id="Layer_2" xmlns="http://www.w3.org/2000/svg" xmlns:xlink="http://www.w3.org/1999/xlink" x="0px" y="0px"
	 viewBox="0 0 45 45" style="enable-background:new 0 0 45 45;" xml:space="preserve">
<style type="text/css">
	.st0{enable-background:new    ;}
	.st1{fill:#002E5F;}
</style>
<g class="st0">
	<path class="st1" d="M38.3,11H6.6c-2.2,0-4.1,1.9-4.1,4.1v10.4c0,2.1,1.7,3.9,3.8,4.1V32c0,0.4,0.3,0.9,0.9,0.9h6.3
		c0.4,0,0.9-0.3,0.9-0.9v-2.5h16.3V32c0,0.4,0.3,0.9,0.9,0.9h6.2c0.4,0,0.9-0.3,0.9-0.9v-2.5c2.1-0.2,3.8-2,3.8-4.1V15.1
		C42.4,12.9,40.5,11,38.3,11L38.3,11z M12.7,31.2H8v-1.6h4.7V31.2z M32.2,31.2v-1.6h4.7v1.6H32.2z M40.7,25.5c0,1.4-1.1,2.5-2.5,2.5
		H6.6c-1.4,0-2.5-1.1-2.5-2.5V15.1c0-1.4,1.1-2.5,2.5-2.5h31.6c1.4,0,2.5,1.1,2.5,2.5L40.7,25.5L40.7,25.5z"/>
	<path class="st1" d="M31.8,26.4c-3.4,0-6.1-2.7-6.1-6.1s2.7-6.1,6.1-6.1s6.1,2.7,6.1,6.1S35.1,26.4,31.8,26.4L31.8,26.4z
		 M31.8,15.8c-2.5,0-4.5,2-4.5,4.5s2,4.5,4.5,4.5s4.5-2,4.5-4.5S34.3,15.8,31.8,15.8L31.8,15.8z"/>
	<path class="st1" d="M29,21.1c-0.4,0-0.9-0.3-0.9-0.9c0-2,1.6-3.6,3.6-3.6c0.4,0,0.9,0.3,0.9,0.9c0,0.4-0.3,0.9-0.9,0.9
		c-1,0-2,0.9-2,1.9C29.9,20.7,29.5,21.1,29,21.1L29,21.1z"/>
	<path class="st1" d="M17.2,17.8H6.9C6.5,17.8,6,17.5,6,17c0-0.4,0.3-0.9,0.9-0.9h10.3c0.4,0,0.9,0.3,0.9,0.9
		C18,17.5,17.6,17.8,17.2,17.8L17.2,17.8z"/>
	<path class="st1" d="M17.2,21.1H6.9c-0.4,0-0.9-0.3-0.9-0.9c0-0.4,0.3-0.9,0.9-0.9h10.3c0.4,0,0.9,0.3,0.9,0.9
		C18,20.7,17.6,21.1,17.2,21.1L17.2,21.1z"/>
	<path class="st1" d="M17.2,24.4H6.9c-0.4,0-0.9-0.3-0.9-0.9c0-0.4,0.3-0.9,0.9-0.9h10.3c0.4,0,0.9,0.3,0.9,0.9
		C18,24,17.6,24.4,17.2,24.4L17.2,24.4z"/>
</g>
</svg>
