<svg xmlns="http://www.w3.org/2000/svg" viewBox="0 0 33.53 33.53"><defs><style>.cls-1{fill:#fff;}</style></defs><title>search</title><g id="Layer_2" data-name="Layer 2"><g id="Layer_2-2" data-name="Layer 2"><path class="cls-1" d="M22,0a11.55,11.55,0,0,0-9.2,18.53l-2.34,2.34,0,.05a2.88,2.88,0,0,0-.59-.06,2.84,2.84,0,0,0-2,.83l-6.95,7a2.85,2.85,0,0,0,0,4,2.85,2.85,0,0,0,4,0l7-6.95a2.84,2.84,0,0,0,.83-2,2.88,2.88,0,0,0-.06-.59l.05,0L15,20.75A11.55,11.55,0,1,0,22,0ZM4.12,31.92a1.77,1.77,0,0,1-1.26.52,1.78,1.78,0,0,1-1.77-1.77,1.75,1.75,0,0,1,.52-1.26l6.27-6.27,2.51,2.5Zm7-7-2.5-2.5a1.79,1.79,0,0,1,1.15-.43,1.78,1.78,0,0,1,1.78,1.78,1.78,1.78,0,0,1-.43,1.15Zm1-2.81c-.1-.13-.2-.25-.31-.37l-.37-.31,2-2c.22.23.45.46.68.68ZM22,22A10.46,10.46,0,1,1,32.44,11.55,10.48,10.48,0,0,1,22,22Z"/><path class="cls-1" d="M22,2.32a9.23,9.23,0,1,0,9.23,9.23A9.24,9.24,0,0,0,22,2.32ZM22,19.7a8.15,8.15,0,1,1,8.15-8.15A8.16,8.16,0,0,1,22,19.7Z"/><path class="cls-1" d="M25.75,5.75a.55.55,0,0,0-.75.16.54.54,0,0,0,.16.75,5.81,5.81,0,0,1,2.65,4.89,5.89,5.89,0,0,1-1.33,3.71.53.53,0,0,0,.07.76.5.5,0,0,0,.34.13.53.53,0,0,0,.42-.2,6.92,6.92,0,0,0-1.56-10.2Z"/><path class="cls-1" d="M23.23,4.75A6.54,6.54,0,0,0,22,4.63a.55.55,0,0,0-.54.55.54.54,0,0,0,.54.54,5.44,5.44,0,0,1,1.06.1h.1a.55.55,0,0,0,.53-.45.54.54,0,0,0-.44-.63Z"/></g></g></svg>