<svg xmlns="http://www.w3.org/2000/svg" viewBox="0 0 27.93 25.49"><defs><style>.cls-1{fill:#fff;}</style></defs><title>sign-out</title><g id="Layer_2" data-name="Layer 2"><g id="Layer_5" data-name="Layer 5"><path class="cls-1" d="M27.59,12.08,24.6,10a.82.82,0,0,0-1.29.67v1.29H9a.82.82,0,1,0,0,1.63H23.31v1.29a.82.82,0,0,0,1.29.67l3-2.11A.82.82,0,0,0,27.59,12.08Z"/><path class="cls-1" d="M23.49,18a.82.82,0,0,0-1.12.3,11.11,11.11,0,1,1,0-11.11.82.82,0,1,0,1.41-.82,12.75,12.75,0,1,0,0,12.75A.82.82,0,0,0,23.49,18Z"/></g></g></svg>