<svg xmlns="http://www.w3.org/2000/svg" viewBox="0 0 30.7 36.33"><defs><style>.cls-1{fill:#fff;}</style></defs><title>staff-directory-white</title><g id="Layer_2" data-name="Layer 2"><g id="staff-directory-white"><g id="Layer_2-2" data-name="Layer 2"><g id="staff-directory"><path class="cls-1" d="M27.89,0H4A2.81,2.81,0,0,0,1.19,2.81h0V6.26H.59A.53.53,0,1,0,.48,7.32h.71v4.62H.59a.54.54,0,0,0-.54.54A.53.53,0,0,0,.59,13h.6v4.62H.59a.54.54,0,1,0,0,1.07h.6v4.62H.59a.55.55,0,0,0-.59.49.54.54,0,0,0,.48.58h.71V29H.59a.54.54,0,1,0-.11,1.07h.71v3.45A2.8,2.8,0,0,0,4,36.33H27.89a2.8,2.8,0,0,0,2.81-2.8h0V2.81A2.81,2.81,0,0,0,27.89,0Zm1.74,33.53a1.74,1.74,0,0,1-1.74,1.74H4a1.74,1.74,0,0,1-1.74-1.74V30.08h.6A.54.54,0,0,0,3,29h-.7V24.39h.6A.54.54,0,0,0,3,23.32h-.7V18.7h.6a.52.52,0,0,0,.53-.53.53.53,0,0,0-.53-.54h-.6V13h.6a.53.53,0,0,0,.54-.53.54.54,0,0,0-.54-.54h-.6V7.32h.6a.52.52,0,0,0,.58-.48A.53.53,0,0,0,3,6.26h-.7V2.81A1.75,1.75,0,0,1,4,1.06H27.89a1.76,1.76,0,0,1,1.74,1.75Z"/><path class="cls-1" d="M5.7,2.27a.54.54,0,0,0-.53.54V33.53a.54.54,0,0,0,1.07,0V2.81A.54.54,0,0,0,5.7,2.27Z"/><path class="cls-1" d="M24,21.05h0l-1.8-.83a1.09,1.09,0,0,0-1.46.54,3.46,3.46,0,0,1-6.26,0,1.09,1.09,0,0,0-1.45-.55h0L11.27,21h0a2.76,2.76,0,0,0-1.55,2.49v2.58a1.1,1.1,0,0,0,1.1,1.1H24.48a1.1,1.1,0,0,0,1.1-1.1V23.55A2.76,2.76,0,0,0,24,21.06Zm.5,5.08a0,0,0,0,1,0,0H10.82s0,0,0,0V23.55a1.73,1.73,0,0,1,1-1.56l1.76-.82h.05a4.5,4.5,0,0,0,8.19,0,0,0,0,0,1,0,0l1.75.82a1.74,1.74,0,0,1,1,1.55Z"/><path class="cls-1" d="M17.51,21h.14a4.49,4.49,0,0,0,4.5-4.5V13.05a3.38,3.38,0,0,0-3.38-3.38H16.51a3.37,3.37,0,0,0-3.37,3.38h0v3.24A4.63,4.63,0,0,0,17.51,21ZM14.2,13.05a2.31,2.31,0,0,1,2.31-2.31h2.28a2.31,2.31,0,0,1,2.31,2.31v3.41a3.45,3.45,0,0,1-3.43,3.45h-.13a3.57,3.57,0,0,1-3.34-3.62Z"/></g></g></g></g></svg>