<svg xmlns="http://www.w3.org/2000/svg" viewBox="0 0 61.32 72.7"><defs><style>.cls-1{fill:#003a71;}.cls-2{fill:#005295;}</style></defs><title>staff-directory</title><g id="Layer_2" data-name="Layer 2"><g id="staff-directory"><path class="cls-1" d="M55.7,0H7.9A5.62,5.62,0,0,0,2.28,5.62v6.9H1.07a1.07,1.07,0,1,0,0,2.13H2.28V23.9H1.07a1.07,1.07,0,0,0,0,2.14H2.28v9.24H1.07a1.07,1.07,0,0,0,0,2.14H2.28v9.25H1.07a1.07,1.07,0,1,0,0,2.13H2.28v9.25H1.07a1.07,1.07,0,1,0,0,2.13H2.28v6.9A5.62,5.62,0,0,0,7.9,72.7H55.7a5.62,5.62,0,0,0,5.62-5.62V5.62A5.62,5.62,0,0,0,55.7,0Zm3.49,67.08a3.5,3.5,0,0,1-3.49,3.49H7.9a3.49,3.49,0,0,1-3.49-3.49v-6.9H5.62a1.07,1.07,0,1,0,0-2.13H4.41V48.8H5.62a1.07,1.07,0,1,0,0-2.13H4.41V37.42H5.62a1.07,1.07,0,0,0,0-2.14H4.41V26H5.62a1.07,1.07,0,1,0,0-2.14H4.41V14.65H5.62a1.07,1.07,0,1,0,0-2.13H4.41V5.62A3.49,3.49,0,0,1,7.9,2.13H55.7a3.5,3.5,0,0,1,3.49,3.49Z"/><path class="cls-1" d="M11.31,4.55a1.07,1.07,0,0,0-1.07,1.07V67.08a1.07,1.07,0,0,0,2.14,0V5.62a1.07,1.07,0,0,0-1.07-1.07Z"/><path class="cls-2" d="M48,42.11l0,0L44.4,40.45a2.21,2.21,0,0,0-2.93,1.08,6.9,6.9,0,0,1-12.52,0A2.2,2.2,0,0,0,26,40.45l-3.55,1.64,0,0a5.57,5.57,0,0,0-3.11,5v5.16a2.21,2.21,0,0,0,2.2,2.2H48.87a2.21,2.21,0,0,0,2.21-2.2V47.13a5.57,5.57,0,0,0-3.11-5Zm1,10.18a.08.08,0,0,1-.07.07H21.55a.08.08,0,0,1-.07-.07V47.13A3.48,3.48,0,0,1,23.4,44l3.53-1.64s.07,0,.09,0a9,9,0,0,0,16.39,0,.07.07,0,0,1,.09,0L47,44a3.47,3.47,0,0,1,1.91,3.11Z"/><path class="cls-2" d="M34.94,42h.28a9,9,0,0,0,9-9V26.11a6.76,6.76,0,0,0-6.76-6.76H32.94a6.76,6.76,0,0,0-6.76,6.76V32.6A9.29,9.29,0,0,0,34.94,42ZM28.31,26.11a4.64,4.64,0,0,1,4.63-4.63h4.55a4.63,4.63,0,0,1,4.62,4.63v6.83A6.88,6.88,0,0,1,35,39.83a7.12,7.12,0,0,1-6.69-7.23Z"/></g></g></svg>