<?xml version="1.0" encoding="utf-8"?>
<!-- Generator: Adobe Illustrator 22.0.1, SVG Export Plug-In . SVG Version: 6.00 Build 0)  -->
<svg version="1.1" id="Layer_2" xmlns="http://www.w3.org/2000/svg" xmlns:xlink="http://www.w3.org/1999/xlink" x="0px" y="0px"
	 viewBox="0 0 45 45" style="enable-background:new 0 0 45 45;" xml:space="preserve">
<style type="text/css">
	.st0{opacity:0.2;}
	.st1{fill:none;stroke:#002E5F;stroke-miterlimit:10;}
</style>
<g class="st0">
	<path class="st1" d="M39.9,5.1C39.9,5.1,39.9,5,39.9,5.1C39.9,5,39.8,5,39.9,5.1c-0.3-0.4-0.7-0.7-1.2-0.7H14.4
		C13.6,4.4,13,5,13,5.8v29.1c0,0.3,0.1,0.6,0.2,0.8l0,0l0,0c0.3,0.4,0.7,0.6,1.2,0.6h1.8c-0.3,1.9-2,3.4-4,3.4s-3.7-1.5-4-3.5H10
		c0.8,0,1.4-0.6,1.4-1.4v-29c0-0.3-0.1-0.5-0.2-0.8l0,0l0,0c-0.3-0.4-0.7-0.7-1.2-0.7H5.1c-0.8,0-1.4,0.6-1.4,1.4v29.1
		c0,0.3,0.1,0.6,0.2,0.8l0,0l0,0c0.3,0.4,0.7,0.6,1.2,0.6h2.1c0.3,2.5,2.4,4.5,5,4.5s4.7-1.9,5-4.4h21.5c0.8,0,1.4-0.6,1.4-1.4V5.8
		C40.1,5.5,40,5.3,39.9,5.1L39.9,5.1z M22.2,26c0,0.3-0.3,0.6-0.6,0.6h-3.4c-0.3,0-0.6-0.3-0.6-0.6v-1.5c0-0.3,0.3-0.6,0.6-0.6h3.4
		c0.3,0,0.6,0.3,0.6,0.6V26z M22.2,21.1c0,0.3-0.3,0.6-0.6,0.6h-3.4c-0.3,0-0.6-0.3-0.6-0.6v-1.4c0-0.3,0.3-0.6,0.6-0.6h3.4
		c0.3,0,0.6,0.3,0.6,0.6V21.1z M22.2,16.3c0,0.3-0.3,0.6-0.6,0.6h-3.4c-0.3,0-0.6-0.3-0.6-0.6v-1.4c0-0.3,0.3-0.6,0.6-0.6h3.4
		c0.3,0,0.6,0.3,0.6,0.6V16.3z M28.8,26c0,0.3-0.3,0.6-0.6,0.6h-3.4c-0.3,0-0.6-0.3-0.6-0.6v-1.5c0-0.3,0.3-0.6,0.6-0.6h3.4
		c0.3,0,0.6,0.3,0.6,0.6V26z M28.8,21.1c0,0.3-0.3,0.6-0.6,0.6h-3.4c-0.3,0-0.6-0.3-0.6-0.6v-1.4c0-0.3,0.3-0.6,0.6-0.6h3.4
		c0.3,0,0.6,0.3,0.6,0.6V21.1z M28.8,16.3c0,0.3-0.3,0.6-0.6,0.6h-3.4c-0.3,0-0.6-0.3-0.6-0.6v-1.4c0-0.3,0.3-0.6,0.6-0.6h3.4
		c0.3,0,0.6,0.3,0.6,0.6V16.3z M35.5,26c0,0.3-0.3,0.6-0.6,0.6h-3.4c-0.3,0-0.6-0.3-0.6-0.6v-1.5c0-0.3,0.3-0.6,0.6-0.6h3.4
		c0.3,0,0.6,0.3,0.6,0.6V26z M35.5,21.1c0,0.3-0.3,0.6-0.6,0.6h-3.4c-0.3,0-0.6-0.3-0.6-0.6v-1.4c0-0.3,0.3-0.6,0.6-0.6h3.4
		c0.3,0,0.6,0.3,0.6,0.6V21.1z M35.5,16.3c0,0.3-0.3,0.6-0.6,0.6h-3.4c-0.3,0-0.6-0.3-0.6-0.6v-1.4c0-0.3,0.3-0.6,0.6-0.6h3.4
		c0.3,0,0.6,0.3,0.6,0.6V16.3z"/>
</g>
</svg>
