<svg xmlns="http://www.w3.org/2000/svg" viewBox="0 0 29.56 29.81"><defs><style>.cls-1{fill:#002e5f;}</style></defs><title>tv</title><g id="Layer_2" data-name="Layer 2"><g id="tv"><path class="cls-1" d="M27.81,4.86h-9.3a3.82,3.82,0,0,0-.46-1.29l7.77-2.43A.59.59,0,0,0,26.2.41.58.58,0,0,0,25.47,0L17.25,2.6a3.78,3.78,0,0,0-4.94,0L4.09,0a.58.58,0,0,0-.73.38.59.59,0,0,0,.39.73l7.76,2.43a3.81,3.81,0,0,0-.45,1.29H1.75A1.76,1.76,0,0,0,0,6.62V26.35A1.76,1.76,0,0,0,1.75,28.1H2v1.13a.58.58,0,0,0,1.16,0V28.1H26.36v1.13a.59.59,0,0,0,1.17,0V28.1h.28a1.75,1.75,0,0,0,1.75-1.75V6.62a1.75,1.75,0,0,0-1.75-1.76Zm-13-2a2.62,2.62,0,0,1,2.54,2H12.24a2.62,2.62,0,0,1,2.54-2ZM28.4,26.35a.59.59,0,0,1-.59.58H1.75a.58.58,0,0,1-.58-.58V6.62A.58.58,0,0,1,1.75,6H27.81a.59.59,0,0,1,.59.59Z"/><path class="cls-1" d="M26.84,8.06a.57.57,0,0,0-.52-.48,136.71,136.71,0,0,0-23.07,0,.58.58,0,0,0-.53.48,48,48,0,0,0,0,16.3.58.58,0,0,0,.53.48c3.82.32,7.68.49,11.53.49s7.71-.17,11.54-.49a.57.57,0,0,0,.52-.48,48,48,0,0,0,0-16.3ZM25.77,23.72a136.7,136.7,0,0,1-22,0,47.3,47.3,0,0,1,0-15,136.7,136.7,0,0,1,22,0,47.3,47.3,0,0,1,0,15Z"/><path class="cls-1" d="M24.83,13.11a.58.58,0,0,0-.55.61,45.38,45.38,0,0,1-.08,6.17.57.57,0,0,0,.53.62h.05a.58.58,0,0,0,.58-.54,47.62,47.62,0,0,0,.09-6.32.59.59,0,0,0-.62-.55Z"/><path class="cls-1" d="M24.72,12.41h.06a.57.57,0,0,0,.52-.63c-.06-.6-.13-1.21-.21-1.8a.58.58,0,1,0-1.15.16c.08.58.15,1.17.2,1.75a.59.59,0,0,0,.58.53Z"/><path class="cls-1" d="M27.67,25.32a.58.58,0,1,0-.35,1.07A.6.6,0,0,0,27.9,26a.59.59,0,0,0-.23-.68Z"/></g></g></svg>