<?xml version="1.0" encoding="utf-8"?>
<!-- Generator: Adobe Illustrator 22.0.1, SVG Export Plug-In . SVG Version: 6.00 Build 0)  -->
<svg version="1.1" id="Layer_3" xmlns="http://www.w3.org/2000/svg" xmlns:xlink="http://www.w3.org/1999/xlink" x="0px" y="0px"
	 viewBox="0 0 45 45" style="enable-background:new 0 0 45 45;" xml:space="preserve">
<style type="text/css">
	.st0{fill:#002E5F;}
</style>
<g>
	<path class="st0" d="M40.8,4.2H4.2c-1.4,0-2.5,1.1-2.5,2.5v24.7c0,1.4,1.1,2.5,2.5,2.5h36.6c1.4,0,2.5-1.1,2.5-2.5V6.7
		C43.3,5.3,42.2,4.2,40.8,4.2L40.8,4.2z M41.9,31.4c0,0.6-0.6,1.2-1.2,1.2H4.2C3.5,32.6,3,32,3,31.4V6.7C3,6,3.5,5.5,4.2,5.5h36.6
		C41.4,5.5,42,6,42,6.7L41.9,31.4L41.9,31.4z"/>
	<path class="st0" d="M22.5,18.3c2.9,0,5.3-2.3,5.3-5.3c0-2.9-2.3-5.3-5.3-5.3s-5.3,2.3-5.3,5.3C17.2,15.9,19.6,18.3,22.5,18.3
		L22.5,18.3z M22.5,9.2c2.1,0,3.9,1.8,3.9,3.9S24.6,17,22.5,17s-3.9-1.8-3.9-3.9S20.4,9.2,22.5,9.2L22.5,9.2z"/>
	<path class="st0" d="M15.5,25.7c0.4,0.2,0.7,0,0.8-0.4c1-2.5,3.4-4.2,6.2-4.2s5.2,1.7,6.2,4.2c0.1,0.3,0.4,0.5,0.6,0.5
		c0.1,0,0.2,0,0.3-0.1c0.4-0.2,0.6-0.6,0.4-0.8c-1.2-3.1-4.2-5-7.4-5s-6.2,1.9-7.4,5C14.9,25.1,15.1,25.5,15.5,25.7L15.5,25.7z"/>
	<path class="st0" d="M40,28H5c-0.4,0-0.6,0.3-0.6,0.6c0,0.4,0.3,0.6,0.6,0.6h34.9c0.4,0,0.6-0.3,0.6-0.6C40.6,28.2,40.3,28,40,28
		L40,28z"/>
	<path class="st0" d="M33.5,39.9h-5.7v-4c0-0.4-0.3-0.6-0.6-0.6c-0.4,0-0.6,0.3-0.6,0.6v4h-7.8v-4c0-0.4-0.3-0.6-0.6-0.6
		c-0.4,0-0.6,0.3-0.6,0.6v4h-5.7c-0.4,0-0.6,0.3-0.6,0.6s0.3,0.6,0.6,0.6h22c0.4,0,0.6-0.3,0.6-0.6C34.1,40.2,33.9,39.9,33.5,39.9
		L33.5,39.9z"/>
</g>
</svg>
